<svg id="svg" version="1.1" xmlns="http://www.w3.org/2000/svg" xmlns:xlink="http://www.w3.org/1999/xlink" width="400" height="400" viewBox="0, 0, 400,400"><g id="svgg"><path id="path4" d="" stroke="none" fill="#1007404" fill-rule="evenodd"></path><path id="path0" d="M303.833 169.404 C 302.688 169.805,301.487 170.222,301.167 170.330 C 300.846 170.439,300.433 170.589,300.250 170.663 C 300.067 170.738,298.942 171.149,297.750 171.577 C 296.558 172.005,294.980 172.575,294.242 172.844 C 293.504 173.113,292.840 173.333,292.767 173.333 C 292.694 173.333,292.397 173.437,292.109 173.563 C 291.820 173.690,290.946 174.018,290.167 174.293 C 289.387 174.568,288.109 175.027,287.325 175.313 C 286.541 175.599,285.840 175.833,285.767 175.833 C 285.694 175.833,285.397 175.937,285.109 176.063 C 284.533 176.315,281.980 177.238,281.363 177.418 C 281.089 177.497,281.007 177.611,281.083 177.807 C 281.427 178.701,282.455 183.429,282.919 186.250 C 284.500 195.874,284.337 206.480,282.468 215.750 C 282.283 216.667,282.059 217.792,281.971 218.250 C 281.883 218.708,281.701 219.496,281.566 220.000 C 281.432 220.504,281.253 221.179,281.168 221.500 C 280.661 223.420,279.549 226.994,279.172 227.917 C 279.097 228.100,278.905 228.625,278.747 229.083 C 278.588 229.542,278.362 230.142,278.244 230.417 C 278.127 230.692,277.635 231.854,277.150 233.000 C 276.354 234.881,274.311 239.040,273.343 240.750 C 272.108 242.931,269.572 246.936,268.686 248.106 C 268.538 248.301,268.304 248.627,268.167 248.830 C 268.029 249.032,267.785 249.352,267.625 249.541 C 267.465 249.730,267.332 249.929,267.331 249.984 C 267.329 250.039,267.105 250.346,266.832 250.667 C 266.560 250.987,266.280 251.326,266.210 251.418 C 266.025 251.664,264.806 253.183,264.417 253.653 C 261.904 256.684,257.392 261.248,254.680 263.500 C 254.183 263.912,253.649 264.372,253.492 264.522 C 253.335 264.671,252.713 265.172,252.110 265.634 C 251.506 266.097,250.916 266.558,250.798 266.660 C 250.591 266.839,248.073 268.657,247.326 269.167 C 247.125 269.304,246.688 269.608,246.355 269.843 C 245.861 270.191,241.178 273.002,239.917 273.708 C 239.241 274.086,234.723 276.310,233.917 276.661 C 233.458 276.861,232.858 277.122,232.583 277.241 C 232.308 277.360,231.708 277.596,231.250 277.764 C 230.792 277.933,230.229 278.167,230.000 278.284 C 229.771 278.402,229.467 278.498,229.325 278.499 C 229.183 278.500,228.995 278.565,228.908 278.644 C 228.712 278.822,225.015 280.041,222.667 280.702 C 219.193 281.679,215.867 282.383,212.167 282.924 C 210.691 283.139,209.691 283.246,205.167 283.670 C 202.914 283.881,197.086 283.881,194.833 283.670 C 190.309 283.246,189.309 283.139,187.833 282.924 C 183.962 282.358,180.567 281.622,176.417 280.447 C 174.810 279.992,171.248 278.786,171.092 278.644 C 171.005 278.565,170.817 278.500,170.675 278.499 C 170.533 278.498,170.229 278.402,170.000 278.284 C 169.771 278.167,169.208 277.932,168.750 277.764 C 168.292 277.595,167.443 277.242,166.863 276.979 C 166.284 276.715,165.772 276.500,165.725 276.500 C 165.610 276.500,160.648 274.016,159.500 273.384 C 153.790 270.238,147.762 265.869,143.086 261.487 C 142.443 260.885,141.786 260.285,141.626 260.154 C 141.234 259.834,137.462 255.813,136.393 254.576 C 131.840 249.306,127.974 243.483,124.782 237.083 C 123.959 235.433,123.263 234.057,123.236 234.024 C 123.192 233.971,122.157 234.307,121.250 234.668 C 121.067 234.741,120.429 234.965,119.833 235.167 C 119.237 235.368,118.600 235.598,118.417 235.677 C 118.233 235.757,117.521 236.019,116.833 236.259 C 116.146 236.499,115.058 236.879,114.417 237.104 C 113.775 237.328,113.100 237.576,112.917 237.656 C 112.733 237.736,112.096 237.965,111.500 238.167 C 110.904 238.368,110.267 238.592,110.083 238.666 C 109.900 238.739,109.075 239.036,108.250 239.327 C 107.425 239.618,106.150 240.071,105.417 240.335 C 104.683 240.598,103.132 241.156,101.970 241.574 C 100.808 241.991,99.806 242.333,99.745 242.333 C 99.684 242.333,99.397 242.437,99.109 242.564 C 98.820 242.691,98.096 242.961,97.500 243.164 C 96.904 243.367,96.267 243.594,96.083 243.670 C 95.900 243.745,95.234 243.982,94.604 244.195 L 93.458 244.583 93.554 251.250 C 93.668 259.194,93.839 260.086,95.614 262.016 C 96.197 262.648,97.998 264.000,98.259 264.000 C 98.319 264.000,99.178 264.487,100.167 265.083 C 101.156 265.679,102.048 266.167,102.149 266.167 C 102.250 266.167,102.333 266.242,102.333 266.333 C 102.333 266.425,102.405 266.500,102.493 266.500 C 102.581 266.500,103.650 267.087,104.868 267.805 C 106.087 268.523,107.233 269.193,107.417 269.294 C 107.600 269.395,108.586 269.970,109.607 270.572 C 110.629 271.174,111.500 271.667,111.544 271.667 C 111.587 271.667,112.500 272.192,113.572 272.833 C 114.644 273.475,115.555 274.000,115.597 274.000 C 115.639 274.000,115.953 274.176,116.295 274.390 C 117.352 275.054,120.970 277.167,121.049 277.167 C 121.090 277.167,121.793 277.568,122.610 278.058 C 123.428 278.549,124.450 279.149,124.881 279.392 C 125.313 279.635,126.021 280.033,126.454 280.276 C 126.887 280.520,127.902 281.120,128.710 281.610 C 129.518 282.099,130.221 282.500,130.274 282.500 C 130.326 282.500,131.178 282.987,132.167 283.583 C 133.156 284.179,134.048 284.667,134.149 284.667 C 134.250 284.667,134.333 284.742,134.333 284.833 C 134.333 284.925,134.405 285.000,134.493 285.000 C 134.581 285.000,135.650 285.587,136.868 286.305 C 138.087 287.023,139.233 287.693,139.417 287.794 C 139.600 287.895,140.586 288.470,141.607 289.072 C 142.629 289.674,143.501 290.167,143.544 290.167 C 143.588 290.167,144.293 290.568,145.110 291.058 C 145.928 291.549,146.931 292.138,147.340 292.368 C 147.749 292.598,148.383 292.955,148.750 293.161 C 149.117 293.367,150.215 294.015,151.191 294.601 C 152.166 295.187,153.003 295.667,153.050 295.667 C 153.096 295.667,154.266 296.342,155.648 297.167 C 157.031 297.992,158.197 298.667,158.239 298.667 C 158.281 298.667,159.249 299.229,160.390 299.917 C 161.530 300.604,162.507 301.167,162.559 301.167 C 162.612 301.167,163.316 301.567,164.123 302.057 C 164.931 302.547,165.946 303.147,166.379 303.390 C 166.812 303.634,167.520 304.032,167.952 304.275 C 168.384 304.518,169.406 305.118,170.223 305.608 C 171.041 306.099,171.745 306.500,171.789 306.500 C 171.834 306.500,172.803 307.063,173.944 307.750 C 175.084 308.438,176.048 309.000,176.086 309.000 C 176.123 309.000,177.172 309.600,178.417 310.333 C 179.661 311.067,180.752 311.667,180.840 311.667 C 180.928 311.667,181.000 311.742,181.000 311.833 C 181.000 311.925,181.083 312.000,181.184 312.000 C 181.286 312.000,182.204 312.492,183.226 313.094 C 184.248 313.696,185.233 314.272,185.417 314.373 C 185.915 314.647,190.310 317.210,192.529 318.519 C 193.599 319.150,194.516 319.667,194.567 319.667 C 194.619 319.667,195.131 319.952,195.705 320.300 C 197.401 321.328,198.204 321.563,200.000 321.558 C 202.176 321.552,202.586 321.392,207.000 318.808 C 207.871 318.299,209.577 317.308,210.792 316.607 C 212.006 315.907,213.956 314.782,215.125 314.108 C 216.294 313.433,218.358 312.233,219.711 311.441 C 221.065 310.648,222.205 310.000,222.245 310.000 C 222.285 310.000,223.188 309.475,224.250 308.833 C 225.312 308.192,226.213 307.667,226.252 307.667 C 226.291 307.667,227.243 307.129,228.369 306.473 C 229.495 305.816,231.579 304.606,233.000 303.783 C 234.421 302.960,236.258 301.893,237.083 301.412 C 237.908 300.931,238.958 300.331,239.417 300.079 C 240.222 299.636,242.113 298.538,246.195 296.142 C 247.265 295.514,248.221 295.000,248.320 295.000 C 248.419 295.000,248.500 294.925,248.500 294.833 C 248.500 294.742,248.581 294.667,248.680 294.667 C 248.779 294.667,249.735 294.153,250.805 293.525 C 254.887 291.129,256.778 290.030,257.583 289.588 C 258.042 289.336,259.092 288.736,259.917 288.256 C 260.742 287.775,262.392 286.819,263.583 286.132 C 264.775 285.444,266.858 284.233,268.211 283.441 C 269.565 282.648,270.705 282.000,270.745 282.000 C 270.785 282.000,271.688 281.475,272.750 280.833 C 273.812 280.192,274.713 279.667,274.752 279.667 C 274.791 279.667,275.743 279.129,276.869 278.473 C 277.995 277.816,280.079 276.606,281.500 275.783 C 282.921 274.960,284.758 273.893,285.583 273.412 C 286.408 272.931,287.458 272.331,287.917 272.079 C 288.722 271.636,290.613 270.538,294.695 268.142 C 295.765 267.514,296.721 267.000,296.820 267.000 C 296.919 267.000,297.000 266.925,297.000 266.833 C 297.000 266.742,297.081 266.667,297.180 266.667 C 297.279 266.667,298.235 266.152,299.305 265.524 C 300.375 264.895,301.788 264.070,302.445 263.691 C 304.235 262.657,305.587 260.856,306.152 258.750 C 306.502 257.448,306.366 168.656,306.015 168.671 C 305.961 168.673,304.979 169.003,303.833 169.404 M205.957 204.514 C 205.796 204.608,205.590 204.639,205.499 204.583 C 205.408 204.526,205.333 204.551,205.333 204.637 C 205.333 204.724,205.165 204.835,204.958 204.884 C 204.010 205.110,202.552 205.526,202.250 205.656 C 202.067 205.735,201.129 206.078,200.167 206.417 C 199.204 206.756,198.267 207.093,198.083 207.167 C 197.900 207.240,196.963 207.578,196.000 207.917 C 195.037 208.256,194.100 208.593,193.917 208.666 C 193.733 208.739,192.946 209.023,192.167 209.296 C 188.867 210.455,187.218 211.053,186.725 211.269 C 186.436 211.396,186.140 211.500,186.067 211.500 C 185.894 211.500,183.171 212.483,182.794 212.681 C 182.635 212.765,182.421 212.833,182.319 212.833 C 182.217 212.833,181.897 212.937,181.609 213.063 C 181.320 213.190,180.446 213.518,179.667 213.793 C 176.652 214.856,175.228 215.364,174.667 215.579 C 174.346 215.702,173.296 216.081,172.333 216.421 C 171.371 216.762,169.646 217.378,168.500 217.790 C 167.354 218.203,165.779 218.763,165.000 219.035 C 164.221 219.307,163.453 219.597,163.294 219.681 C 163.135 219.765,162.921 219.833,162.819 219.833 C 162.717 219.833,162.397 219.937,162.109 220.063 C 161.820 220.190,160.946 220.518,160.167 220.794 C 156.614 222.048,155.226 222.543,154.917 222.667 C 154.733 222.740,153.796 223.078,152.833 223.417 C 151.871 223.756,150.933 224.093,150.750 224.167 C 150.567 224.240,149.629 224.579,148.667 224.920 C 147.704 225.260,146.126 225.830,145.160 226.186 C 144.193 226.542,143.342 226.833,143.268 226.833 C 143.194 226.833,142.897 226.937,142.609 227.063 C 142.320 227.190,141.446 227.518,140.667 227.794 C 136.985 229.093,135.724 229.544,135.417 229.670 C 135.233 229.745,134.577 229.981,133.958 230.194 C 133.237 230.442,132.834 230.670,132.834 230.832 C 132.834 231.059,134.856 235.181,135.164 235.583 C 135.234 235.675,135.578 236.275,135.927 236.917 C 137.199 239.252,141.817 245.947,142.653 246.667 C 142.706 246.713,143.050 247.124,143.417 247.580 C 145.466 250.132,149.491 254.117,153.096 257.161 C 153.364 257.388,154.521 258.268,155.667 259.118 C 156.813 259.968,157.825 260.721,157.917 260.790 C 159.854 262.260,167.004 266.296,169.424 267.285 C 169.938 267.495,171.224 268.039,172.083 268.410 C 172.838 268.735,176.192 269.957,176.667 270.080 C 176.896 270.139,177.233 270.253,177.417 270.332 C 177.711 270.460,179.071 270.860,180.833 271.339 C 181.154 271.426,182.092 271.649,182.917 271.835 C 183.742 272.020,184.717 272.243,185.083 272.330 C 185.711 272.480,188.531 272.929,191.333 273.327 C 194.660 273.799,206.333 273.857,207.843 273.408 C 207.986 273.366,208.923 273.223,209.926 273.092 C 212.638 272.735,215.117 272.264,217.750 271.605 C 219.459 271.177,219.898 271.059,220.500 270.864 C 220.821 270.761,221.608 270.514,222.250 270.317 C 223.657 269.883,226.797 268.752,227.833 268.305 C 228.246 268.127,228.733 267.917,228.917 267.838 C 229.755 267.475,231.989 266.439,232.667 266.099 C 235.462 264.696,240.105 262.004,239.741 261.997 C 239.532 261.993,241.117 261.000,241.333 261.000 C 241.425 261.000,241.500 260.925,241.500 260.833 C 241.500 260.742,241.612 260.667,241.750 260.667 C 241.887 260.667,242.000 260.587,242.000 260.490 C 242.000 260.393,242.068 260.356,242.151 260.407 C 242.235 260.459,242.482 260.294,242.702 260.042 C 242.921 259.790,243.208 259.559,243.340 259.528 C 243.472 259.498,243.618 259.414,243.665 259.342 C 243.712 259.270,244.275 258.819,244.917 258.341 C 245.558 257.862,246.159 257.383,246.252 257.277 C 246.344 257.170,246.757 256.825,247.168 256.509 C 247.580 256.194,248.292 255.575,248.750 255.135 C 252.288 251.736,254.148 249.863,255.337 248.500 C 256.096 247.629,256.763 246.879,256.817 246.833 C 256.872 246.787,257.290 246.262,257.746 245.667 C 258.202 245.071,258.633 244.558,258.704 244.528 C 258.775 244.497,258.833 244.364,258.833 244.231 C 258.833 244.098,258.943 243.947,259.077 243.896 C 259.211 243.845,259.362 243.673,259.412 243.514 C 259.463 243.355,259.672 243.045,259.877 242.825 C 260.082 242.605,260.251 242.385,260.253 242.337 C 260.260 242.144,260.914 241.167,261.036 241.167 C 261.108 241.167,261.167 241.066,261.167 240.942 C 261.167 240.819,261.298 240.563,261.458 240.373 C 261.619 240.183,261.881 239.871,262.042 239.679 C 262.202 239.487,262.333 239.218,262.333 239.081 C 262.333 238.945,262.391 238.833,262.460 238.833 C 262.530 238.833,262.662 238.687,262.752 238.508 C 262.843 238.330,263.099 237.823,263.321 237.383 C 263.544 236.943,263.827 236.522,263.951 236.448 C 264.112 236.350,263.963 236.198,263.421 235.906 C 261.129 234.673,258.925 233.457,258.750 233.330 C 258.658 233.263,258.096 232.947,257.500 232.627 C 255.988 231.814,254.837 231.177,254.250 230.828 C 253.975 230.664,253.412 230.349,253.000 230.127 C 252.588 229.906,251.537 229.324,250.667 228.833 C 249.796 228.343,248.746 227.761,248.333 227.539 C 247.921 227.318,247.358 227.003,247.083 226.839 C 246.496 226.489,245.345 225.852,243.833 225.040 C 243.237 224.720,242.675 224.403,242.583 224.336 C 242.419 224.216,241.448 223.680,239.333 222.541 C 238.737 222.220,238.175 221.903,238.083 221.836 C 237.919 221.716,236.948 221.180,234.833 220.041 C 234.237 219.720,233.675 219.403,233.583 219.336 C 233.419 219.216,232.448 218.680,230.333 217.541 C 229.737 217.220,229.175 216.903,229.083 216.836 C 228.919 216.716,227.948 216.180,225.833 215.041 C 225.237 214.720,224.675 214.400,224.583 214.330 C 224.434 214.215,223.294 213.588,221.667 212.726 C 221.346 212.556,221.046 212.379,221.000 212.333 C 220.920 212.254,220.013 211.751,218.917 211.178 C 218.642 211.034,218.379 210.879,218.333 210.833 C 218.288 210.787,217.875 210.563,217.417 210.333 C 216.958 210.104,216.546 209.879,216.500 209.833 C 216.420 209.754,215.513 209.251,214.417 208.678 C 214.142 208.534,213.879 208.379,213.833 208.333 C 213.787 208.287,213.487 208.111,213.167 207.940 C 211.849 207.241,210.406 206.444,210.250 206.330 C 210.158 206.263,209.596 205.947,209.000 205.627 C 208.404 205.307,207.633 204.885,207.287 204.689 C 206.584 204.292,206.383 204.266,205.957 204.514 " stroke="none" fill="#137efa" fill-rule="evenodd"></path><path id="path1" d="M306.235 173.833 C 306.235 175.346,306.260 175.965,306.291 175.208 C 306.322 174.452,306.322 173.215,306.291 172.458 C 306.260 171.702,306.235 172.321,306.235 173.833 M270.667 181.445 C 270.529 181.493,269.799 181.751,269.043 182.020 C 268.288 182.289,267.013 182.739,266.210 183.021 C 265.407 183.304,264.600 183.594,264.417 183.667 C 264.233 183.739,263.426 184.030,262.623 184.312 C 261.820 184.594,260.545 185.046,259.790 185.315 C 259.035 185.585,258.229 185.858,258.000 185.923 C 257.771 185.988,257.508 186.098,257.417 186.168 C 257.325 186.238,256.987 186.350,256.667 186.417 C 256.346 186.484,256.008 186.596,255.917 186.666 C 255.825 186.735,255.563 186.846,255.333 186.910 C 255.104 186.975,254.279 187.256,253.500 187.535 C 252.721 187.813,251.446 188.265,250.667 188.538 C 249.887 188.811,249.100 189.094,248.917 189.167 C 248.733 189.239,247.926 189.530,247.123 189.812 C 244.562 190.712,242.962 191.277,241.167 191.917 C 240.204 192.259,238.817 192.751,238.083 193.009 C 234.295 194.342,233.724 194.545,233.417 194.668 C 233.233 194.741,232.596 194.965,232.000 195.167 C 231.404 195.368,230.767 195.593,230.583 195.667 C 230.400 195.740,229.762 195.967,229.167 196.170 C 227.119 196.868,225.249 197.535,224.917 197.686 C 224.733 197.770,224.358 197.905,224.083 197.987 C 223.808 198.069,222.608 198.487,221.417 198.915 C 220.225 199.343,219.025 199.762,218.750 199.844 C 218.475 199.927,218.100 200.066,217.917 200.154 C 217.733 200.241,217.021 200.502,216.333 200.733 C 215.646 200.965,214.108 201.501,212.917 201.925 C 211.725 202.349,210.525 202.771,210.250 202.862 C 209.975 202.953,209.600 203.090,209.417 203.166 C 209.233 203.242,208.500 203.509,207.788 203.759 C 207.075 204.010,206.513 204.233,206.538 204.256 C 206.606 204.318,207.778 204.971,209.000 205.627 C 209.596 205.947,210.158 206.263,210.250 206.330 C 210.406 206.444,211.849 207.241,213.167 207.940 C 213.487 208.111,213.788 208.287,213.834 208.333 C 213.913 208.412,214.821 208.916,215.917 209.489 C 216.191 209.632,216.454 209.787,216.500 209.833 C 216.546 209.879,216.958 210.104,217.417 210.333 C 217.875 210.563,218.288 210.787,218.334 210.833 C 218.413 210.912,219.320 211.415,220.417 211.989 C 220.691 212.132,220.954 212.287,221.000 212.333 C 221.046 212.379,221.346 212.556,221.667 212.726 C 223.294 213.588,224.434 214.215,224.583 214.330 C 224.675 214.400,225.237 214.720,225.833 215.041 C 227.948 216.180,228.919 216.716,229.083 216.836 C 229.175 216.903,229.737 217.220,230.333 217.541 C 232.448 218.680,233.419 219.216,233.583 219.336 C 233.675 219.403,234.237 219.720,234.833 220.041 C 236.948 221.180,237.919 221.716,238.083 221.836 C 238.175 221.903,238.737 222.220,239.333 222.541 C 241.448 223.680,242.419 224.216,242.583 224.336 C 242.675 224.403,243.237 224.720,243.833 225.040 C 245.345 225.852,246.496 226.489,247.083 226.839 C 247.358 227.003,247.921 227.318,248.333 227.539 C 248.746 227.761,249.796 228.343,250.667 228.833 C 251.537 229.324,252.588 229.906,253.000 230.127 C 253.412 230.349,253.975 230.664,254.250 230.828 C 254.837 231.177,255.988 231.814,257.500 232.627 C 258.096 232.947,258.658 233.264,258.750 233.330 C 258.911 233.448,259.714 233.892,262.000 235.128 C 262.596 235.450,263.231 235.815,263.412 235.940 C 263.886 236.267,264.224 236.218,264.432 235.790 C 264.532 235.585,265.106 234.442,265.706 233.250 C 266.306 232.058,266.960 230.708,267.158 230.250 C 267.356 229.792,267.585 229.267,267.667 229.083 C 267.749 228.900,267.978 228.338,268.178 227.833 C 268.377 227.329,268.637 226.692,268.756 226.417 C 268.963 225.939,270.004 222.849,270.554 221.083 C 273.938 210.205,274.463 196.125,271.920 184.417 C 271.781 183.775,271.579 182.819,271.471 182.292 C 271.280 181.360,271.190 181.266,270.667 181.445 M263.451 237.108 C 263.043 237.929,263.169 237.962,263.633 237.155 C 263.840 236.795,263.951 236.502,263.880 236.504 C 263.808 236.506,263.616 236.778,263.451 237.108 M260.538 241.762 C 260.332 242.076,260.197 242.333,260.237 242.333 C 260.353 242.333,261.043 241.321,260.975 241.252 C 260.941 241.218,260.744 241.448,260.538 241.762 M254.658 249.292 L 254.083 249.917 254.708 249.342 C 255.052 249.026,255.333 248.745,255.333 248.717 C 255.333 248.590,255.192 248.710,254.658 249.292 M251.845 252.170 C 251.072 252.901,250.511 253.500,250.599 253.500 C 250.686 253.500,251.354 252.900,252.083 252.167 C 253.786 250.454,253.655 250.456,251.845 252.170 M249.414 254.462 C 249.229 254.620,248.931 254.938,248.751 255.167 C 248.572 255.396,248.742 255.287,249.129 254.925 C 249.767 254.328,249.915 254.159,249.792 254.170 C 249.769 254.172,249.599 254.304,249.414 254.462 M240.333 261.508 C 239.921 261.775,239.658 261.995,239.750 261.996 C 239.842 261.997,240.254 261.774,240.667 261.500 C 241.079 261.226,241.342 261.006,241.250 261.011 C 241.158 261.017,240.746 261.240,240.333 261.508 " stroke="none" fill="#0c3cc4" fill-rule="evenodd"></path><path id="path2" d="M198.667 78.438 C 197.717 78.622,197.019 78.913,195.869 79.604 C 195.201 80.005,194.612 80.333,194.559 80.333 C 194.507 80.333,193.530 80.896,192.390 81.583 C 191.249 82.271,190.285 82.833,190.249 82.833 C 190.212 82.833,189.072 83.480,187.716 84.270 C 182.859 87.099,181.042 88.153,178.250 89.760 C 176.692 90.658,174.629 91.855,173.667 92.422 C 172.704 92.989,171.692 93.568,171.417 93.710 C 170.273 94.298,168.900 96.044,168.239 97.750 C 167.926 98.558,167.917 99.218,167.917 119.861 C 167.917 131.564,167.864 141.191,167.800 141.256 C 167.670 141.385,167.627 141.217,167.262 139.167 C 167.024 137.829,166.597 135.482,166.082 132.667 C 165.956 131.979,165.735 130.742,165.591 129.917 C 165.446 129.092,165.253 128.042,165.160 127.583 C 164.959 126.585,164.237 122.611,163.918 120.750 C 163.792 120.017,163.570 118.779,163.424 118.000 C 163.278 117.221,163.053 115.983,162.924 115.250 C 162.795 114.517,162.570 113.279,162.424 112.500 C 162.123 110.894,161.737 108.727,161.489 107.250 C 160.478 101.227,159.449 100.614,154.833 103.282 C 151.864 104.999,150.903 105.563,149.941 106.152 C 149.329 106.527,148.794 106.833,148.752 106.833 C 148.711 106.833,148.056 107.200,147.297 107.647 C 145.995 108.415,145.550 108.670,144.042 109.518 C 143.698 109.711,142.618 110.348,141.643 110.934 C 140.667 111.520,139.827 112.000,139.775 112.000 C 139.724 112.000,138.937 112.450,138.027 113.000 C 137.116 113.550,136.288 114.000,136.186 114.000 C 136.084 114.000,136.000 114.066,136.000 114.147 C 136.000 114.228,135.869 114.336,135.708 114.387 C 135.548 114.438,135.229 114.595,135.000 114.736 C 133.532 115.640,130.636 117.333,130.558 117.333 C 130.506 117.333,129.530 117.896,128.390 118.583 C 127.249 119.271,126.283 119.833,126.243 119.833 C 126.203 119.833,125.413 120.283,124.486 120.833 C 123.560 121.383,122.767 121.833,122.723 121.833 C 122.679 121.833,122.316 122.058,121.917 122.333 C 121.517 122.608,121.141 122.833,121.082 122.833 C 121.023 122.833,120.099 123.348,119.029 123.977 C 114.232 126.796,112.021 128.081,111.208 128.522 C 110.726 128.783,110.033 129.186,109.667 129.417 C 109.301 129.648,108.607 130.051,108.126 130.312 C 107.212 130.808,104.494 132.381,101.083 134.389 C 99.983 135.037,98.858 135.678,98.583 135.814 C 96.016 137.087,94.274 139.179,93.829 141.522 C 93.492 143.298,93.619 232.529,93.958 232.342 C 94.119 232.254,94.813 231.993,95.500 231.764 C 96.188 231.534,97.706 231.006,98.875 230.590 C 100.044 230.174,101.956 229.493,103.125 229.077 C 104.294 228.661,105.813 228.131,106.500 227.900 C 107.188 227.669,107.900 227.408,108.083 227.320 C 108.267 227.233,108.642 227.095,108.917 227.013 C 109.192 226.931,110.392 226.513,111.583 226.084 C 112.775 225.656,114.013 225.228,114.333 225.135 C 114.654 225.042,114.992 224.907,115.083 224.835 C 115.175 224.764,115.510 224.649,115.828 224.581 C 116.146 224.513,116.521 224.398,116.661 224.326 C 116.802 224.253,117.704 223.917,118.667 223.578 C 119.629 223.239,120.906 222.783,121.504 222.564 C 122.101 222.346,122.652 222.167,122.728 222.167 C 122.804 222.167,123.103 222.063,123.391 221.936 C 123.680 221.809,124.404 221.539,125.000 221.336 C 125.596 221.133,126.233 220.905,126.417 220.829 C 126.600 220.754,127.875 220.304,129.250 219.830 C 130.625 219.356,132.537 218.684,133.500 218.337 C 134.462 217.990,135.737 217.539,136.333 217.336 C 136.929 217.133,137.567 216.907,137.750 216.833 C 137.933 216.760,138.571 216.535,139.167 216.333 C 139.762 216.132,140.400 215.899,140.583 215.815 C 140.767 215.730,141.142 215.595,141.417 215.513 C 141.692 215.431,142.892 215.013,144.083 214.584 C 145.275 214.156,146.512 213.728,146.833 213.635 C 147.154 213.542,147.492 213.407,147.583 213.335 C 147.675 213.264,147.999 213.152,148.303 213.087 C 148.607 213.022,149.057 212.864,149.303 212.735 C 149.549 212.607,149.821 212.502,149.908 212.501 C 149.995 212.500,150.708 212.266,151.492 211.980 C 152.275 211.695,153.404 211.291,154.000 211.083 C 156.150 210.332,158.590 209.464,158.917 209.333 C 159.100 209.259,159.737 209.035,160.333 208.833 C 160.929 208.632,161.567 208.405,161.750 208.329 C 161.933 208.252,162.965 207.884,164.042 207.511 C 165.119 207.139,166.881 206.528,167.958 206.155 C 169.035 205.782,170.067 205.415,170.250 205.338 C 170.433 205.262,171.071 205.035,171.667 204.833 C 172.262 204.632,172.900 204.408,173.083 204.334 C 173.267 204.261,174.054 203.978,174.833 203.704 C 175.612 203.431,176.891 202.973,177.675 202.687 C 178.459 202.401,179.160 202.167,179.233 202.167 C 179.306 202.167,179.603 202.060,179.891 201.930 C 180.180 201.800,180.979 201.502,181.667 201.270 C 182.354 201.037,183.892 200.500,185.083 200.076 C 186.275 199.653,187.550 199.207,187.917 199.086 C 188.283 198.965,189.558 198.514,190.750 198.085 C 191.942 197.655,193.142 197.229,193.417 197.138 C 193.692 197.047,194.067 196.911,194.250 196.836 C 194.433 196.761,195.071 196.535,195.667 196.333 C 196.262 196.132,196.900 195.906,197.083 195.831 C 197.267 195.756,197.679 195.606,198.000 195.498 C 198.998 195.162,203.978 193.401,206.250 192.580 C 207.442 192.150,208.717 191.699,209.083 191.579 C 209.450 191.459,210.725 191.010,211.917 190.581 C 213.108 190.152,214.383 189.701,214.750 189.579 C 215.117 189.457,216.392 189.011,217.583 188.587 C 218.775 188.164,220.313 187.629,221.000 187.398 C 221.688 187.168,222.400 186.916,222.583 186.840 C 222.901 186.706,224.751 186.045,227.833 184.963 C 228.612 184.689,229.400 184.404,229.583 184.328 C 229.767 184.253,231.042 183.804,232.417 183.330 C 235.274 182.345,237.597 181.526,238.083 181.333 C 238.407 181.204,240.795 180.354,243.000 179.583 C 243.596 179.375,244.871 178.925,245.833 178.583 C 246.796 178.242,248.071 177.792,248.667 177.584 C 249.262 177.376,250.407 176.974,251.210 176.690 C 252.013 176.407,253.288 175.957,254.043 175.691 C 254.799 175.424,256.204 174.926,257.167 174.583 C 258.129 174.241,259.554 173.736,260.333 173.463 C 261.112 173.189,261.900 172.904,262.083 172.828 C 262.267 172.753,263.542 172.304,264.917 171.830 C 267.789 170.840,270.101 170.025,270.583 169.832 C 270.767 169.759,271.404 169.535,272.000 169.333 C 272.596 169.132,273.233 168.908,273.417 168.834 C 273.805 168.679,276.104 167.869,277.667 167.337 C 278.262 167.134,278.900 166.908,279.083 166.834 C 279.267 166.761,280.054 166.477,280.833 166.204 C 281.612 165.930,283.037 165.426,284.000 165.084 C 284.962 164.742,286.237 164.292,286.833 164.083 C 287.429 163.875,288.704 163.425,289.667 163.082 C 290.629 162.740,292.054 162.236,292.833 161.963 C 293.612 161.689,294.400 161.406,294.583 161.332 C 294.767 161.259,295.404 161.035,296.000 160.833 C 296.596 160.632,297.233 160.404,297.417 160.327 C 297.600 160.250,298.313 159.998,299.000 159.767 C 299.688 159.535,301.225 158.999,302.417 158.575 C 303.608 158.151,304.808 157.729,305.083 157.638 C 305.358 157.547,305.752 157.391,305.958 157.291 L 306.333 157.110 306.333 149.415 C 306.333 137.987,306.833 138.834,296.667 133.008 C 295.337 132.246,293.313 131.079,292.167 130.416 C 291.021 129.752,288.921 128.535,287.500 127.712 C 286.079 126.889,283.995 125.680,282.869 125.025 C 281.743 124.369,280.792 123.833,280.755 123.833 C 280.718 123.833,279.810 123.308,278.738 122.667 C 277.666 122.025,276.756 121.500,276.715 121.500 C 276.674 121.500,275.765 120.984,274.695 120.353 C 273.625 119.723,271.550 118.513,270.083 117.664 C 268.617 116.816,266.605 115.644,265.612 115.061 C 264.619 114.477,263.770 114.000,263.724 114.000 C 263.678 114.000,262.765 113.484,261.695 112.853 C 258.974 111.249,255.888 109.458,255.000 108.967 C 253.993 108.410,250.162 106.196,248.000 104.921 C 243.388 102.202,242.874 101.952,241.894 101.952 C 240.073 101.952,239.503 102.757,238.909 106.167 C 238.773 106.946,238.557 108.146,238.429 108.833 C 238.301 109.521,238.077 110.740,237.932 111.542 C 237.552 113.631,237.166 115.737,236.914 117.083 C 236.709 118.180,236.468 119.486,235.905 122.542 C 235.774 123.252,235.560 124.415,235.429 125.125 C 234.866 128.180,234.624 129.487,234.419 130.583 C 234.189 131.814,233.804 133.918,233.426 136.000 C 232.912 138.829,232.825 139.290,232.640 140.167 C 232.533 140.671,232.383 141.155,232.307 141.242 C 232.230 141.329,232.158 135.141,232.147 127.492 C 232.114 105.186,231.982 98.065,231.584 97.250 C 230.622 95.276,227.431 92.333,226.252 92.333 C 226.214 92.333,225.297 91.798,224.216 91.144 C 223.135 90.490,221.838 89.731,221.333 89.458 C 220.829 89.186,219.554 88.456,218.500 87.838 C 217.446 87.220,215.608 86.152,214.417 85.465 C 213.225 84.777,211.142 83.567,209.789 82.774 C 208.435 81.982,207.254 81.333,207.164 81.333 C 207.074 81.333,207.000 81.258,207.000 81.167 C 207.000 81.075,206.916 81.000,206.814 81.000 C 206.712 81.000,205.906 80.566,205.023 80.035 C 202.632 78.597,200.545 78.073,198.667 78.438 " stroke="none" fill="#fcac04" fill-rule="evenodd"></path><path id="path3" d="" stroke="none" fill="#000000" fill-rule="evenodd"></path><path id="path4" d="" stroke="none" fill="#1007404" fill-rule="evenodd"></path><path id="path0" d="M303.833 169.404 C 302.688 169.805,301.487 170.222,301.167 170.330 C 300.846 170.439,300.433 170.589,300.250 170.663 C 300.067 170.738,298.942 171.149,297.750 171.577 C 296.558 172.005,294.980 172.575,294.242 172.844 C 293.504 173.113,292.840 173.333,292.767 173.333 C 292.694 173.333,292.397 173.437,292.109 173.563 C 291.820 173.690,290.946 174.018,290.167 174.293 C 289.387 174.568,288.109 175.027,287.325 175.313 C 286.541 175.599,285.840 175.833,285.767 175.833 C 285.694 175.833,285.397 175.937,285.109 176.063 C 284.533 176.315,281.980 177.238,281.363 177.418 C 281.089 177.497,281.007 177.611,281.083 177.807 C 281.427 178.701,282.455 183.429,282.919 186.250 C 284.500 195.874,284.337 206.480,282.468 215.750 C 282.283 216.667,282.059 217.792,281.971 218.250 C 281.883 218.708,281.701 219.496,281.566 220.000 C 281.432 220.504,281.253 221.179,281.168 221.500 C 280.661 223.420,279.549 226.994,279.172 227.917 C 279.097 228.100,278.905 228.625,278.747 229.083 C 278.588 229.542,278.362 230.142,278.244 230.417 C 278.127 230.692,277.635 231.854,277.150 233.000 C 276.354 234.881,274.311 239.040,273.343 240.750 C 272.108 242.931,269.572 246.936,268.686 248.106 C 268.538 248.301,268.304 248.627,268.167 248.830 C 268.029 249.032,267.785 249.352,267.625 249.541 C 267.465 249.730,267.332 249.929,267.331 249.984 C 267.329 250.039,267.105 250.346,266.832 250.667 C 266.560 250.987,266.280 251.326,266.210 251.418 C 266.025 251.664,264.806 253.183,264.417 253.653 C 261.904 256.684,257.392 261.248,254.680 263.500 C 254.183 263.912,253.649 264.372,253.492 264.522 C 253.335 264.671,252.713 265.172,252.110 265.634 C 251.506 266.097,250.916 266.558,250.798 266.660 C 250.591 266.839,248.073 268.657,247.326 269.167 C 247.125 269.304,246.688 269.608,246.355 269.843 C 245.861 270.191,241.178 273.002,239.917 273.708 C 239.241 274.086,234.723 276.310,233.917 276.661 C 233.458 276.861,232.858 277.122,232.583 277.241 C 232.308 277.360,231.708 277.596,231.250 277.764 C 230.792 277.933,230.229 278.167,230.000 278.284 C 229.771 278.402,229.467 278.498,229.325 278.499 C 229.183 278.500,228.995 278.565,228.908 278.644 C 228.712 278.822,225.015 280.041,222.667 280.702 C 219.193 281.679,215.867 282.383,212.167 282.924 C 210.691 283.139,209.691 283.246,205.167 283.670 C 202.914 283.881,197.086 283.881,194.833 283.670 C 190.309 283.246,189.309 283.139,187.833 282.924 C 183.962 282.358,180.567 281.622,176.417 280.447 C 174.810 279.992,171.248 278.786,171.092 278.644 C 171.005 278.565,170.817 278.500,170.675 278.499 C 170.533 278.498,170.229 278.402,170.000 278.284 C 169.771 278.167,169.208 277.932,168.750 277.764 C 168.292 277.595,167.443 277.242,166.863 276.979 C 166.284 276.715,165.772 276.500,165.725 276.500 C 165.610 276.500,160.648 274.016,159.500 273.384 C 153.790 270.238,147.762 265.869,143.086 261.487 C 142.443 260.885,141.786 260.285,141.626 260.154 C 141.234 259.834,137.462 255.813,136.393 254.576 C 131.840 249.306,127.974 243.483,124.782 237.083 C 123.959 235.433,123.263 234.057,123.236 234.024 C 123.192 233.971,122.157 234.307,121.250 234.668 C 121.067 234.741,120.429 234.965,119.833 235.167 C 119.237 235.368,118.600 235.598,118.417 235.677 C 118.233 235.757,117.521 236.019,116.833 236.259 C 116.146 236.499,115.058 236.879,114.417 237.104 C 113.775 237.328,113.100 237.576,112.917 237.656 C 112.733 237.736,112.096 237.965,111.500 238.167 C 110.904 238.368,110.267 238.592,110.083 238.666 C 109.900 238.739,109.075 239.036,108.250 239.327 C 107.425 239.618,106.150 240.071,105.417 240.335 C 104.683 240.598,103.132 241.156,101.970 241.574 C 100.808 241.991,99.806 242.333,99.745 242.333 C 99.684 242.333,99.397 242.437,99.109 242.564 C 98.820 242.691,98.096 242.961,97.500 243.164 C 96.904 243.367,96.267 243.594,96.083 243.670 C 95.900 243.745,95.234 243.982,94.604 244.195 L 93.458 244.583 93.554 251.250 C 93.668 259.194,93.839 260.086,95.614 262.016 C 96.197 262.648,97.998 264.000,98.259 264.000 C 98.319 264.000,99.178 264.487,100.167 265.083 C 101.156 265.679,102.048 266.167,102.149 266.167 C 102.250 266.167,102.333 266.242,102.333 266.333 C 102.333 266.425,102.405 266.500,102.493 266.500 C 102.581 266.500,103.650 267.087,104.868 267.805 C 106.087 268.523,107.233 269.193,107.417 269.294 C 107.600 269.395,108.586 269.970,109.607 270.572 C 110.629 271.174,111.500 271.667,111.544 271.667 C 111.587 271.667,112.500 272.192,113.572 272.833 C 114.644 273.475,115.555 274.000,115.597 274.000 C 115.639 274.000,115.953 274.176,116.295 274.390 C 117.352 275.054,120.970 277.167,121.049 277.167 C 121.090 277.167,121.793 277.568,122.610 278.058 C 123.428 278.549,124.450 279.149,124.881 279.392 C 125.313 279.635,126.021 280.033,126.454 280.276 C 126.887 280.520,127.902 281.120,128.710 281.610 C 129.518 282.099,130.221 282.500,130.274 282.500 C 130.326 282.500,131.178 282.987,132.167 283.583 C 133.156 284.179,134.048 284.667,134.149 284.667 C 134.250 284.667,134.333 284.742,134.333 284.833 C 134.333 284.925,134.405 285.000,134.493 285.000 C 134.581 285.000,135.650 285.587,136.868 286.305 C 138.087 287.023,139.233 287.693,139.417 287.794 C 139.600 287.895,140.586 288.470,141.607 289.072 C 142.629 289.674,143.501 290.167,143.544 290.167 C 143.588 290.167,144.293 290.568,145.110 291.058 C 145.928 291.549,146.931 292.138,147.340 292.368 C 147.749 292.598,148.383 292.955,148.750 293.161 C 149.117 293.367,150.215 294.015,151.191 294.601 C 152.166 295.187,153.003 295.667,153.050 295.667 C 153.096 295.667,154.266 296.342,155.648 297.167 C 157.031 297.992,158.197 298.667,158.239 298.667 C 158.281 298.667,159.249 299.229,160.390 299.917 C 161.530 300.604,162.507 301.167,162.559 301.167 C 162.612 301.167,163.316 301.567,164.123 302.057 C 164.931 302.547,165.946 303.147,166.379 303.390 C 166.812 303.634,167.520 304.032,167.952 304.275 C 168.384 304.518,169.406 305.118,170.223 305.608 C 171.041 306.099,171.745 306.500,171.789 306.500 C 171.834 306.500,172.803 307.063,173.944 307.750 C 175.084 308.438,176.048 309.000,176.086 309.000 C 176.123 309.000,177.172 309.600,178.417 310.333 C 179.661 311.067,180.752 311.667,180.840 311.667 C 180.928 311.667,181.000 311.742,181.000 311.833 C 181.000 311.925,181.083 312.000,181.184 312.000 C 181.286 312.000,182.204 312.492,183.226 313.094 C 184.248 313.696,185.233 314.272,185.417 314.373 C 185.915 314.647,190.310 317.210,192.529 318.519 C 193.599 319.150,194.516 319.667,194.567 319.667 C 194.619 319.667,195.131 319.952,195.705 320.300 C 197.401 321.328,198.204 321.563,200.000 321.558 C 202.176 321.552,202.586 321.392,207.000 318.808 C 207.871 318.299,209.577 317.308,210.792 316.607 C 212.006 315.907,213.956 314.782,215.125 314.108 C 216.294 313.433,218.358 312.233,219.711 311.441 C 221.065 310.648,222.205 310.000,222.245 310.000 C 222.285 310.000,223.188 309.475,224.250 308.833 C 225.312 308.192,226.213 307.667,226.252 307.667 C 226.291 307.667,227.243 307.129,228.369 306.473 C 229.495 305.816,231.579 304.606,233.000 303.783 C 234.421 302.960,236.258 301.893,237.083 301.412 C 237.908 300.931,238.958 300.331,239.417 300.079 C 240.222 299.636,242.113 298.538,246.195 296.142 C 247.265 295.514,248.221 295.000,248.320 295.000 C 248.419 295.000,248.500 294.925,248.500 294.833 C 248.500 294.742,248.581 294.667,248.680 294.667 C 248.779 294.667,249.735 294.153,250.805 293.525 C 254.887 291.129,256.778 290.030,257.583 289.588 C 258.042 289.336,259.092 288.736,259.917 288.256 C 260.742 287.775,262.392 286.819,263.583 286.132 C 264.775 285.444,266.858 284.233,268.211 283.441 C 269.565 282.648,270.705 282.000,270.745 282.000 C 270.785 282.000,271.688 281.475,272.750 280.833 C 273.812 280.192,274.713 279.667,274.752 279.667 C 274.791 279.667,275.743 279.129,276.869 278.473 C 277.995 277.816,280.079 276.606,281.500 275.783 C 282.921 274.960,284.758 273.893,285.583 273.412 C 286.408 272.931,287.458 272.331,287.917 272.079 C 288.722 271.636,290.613 270.538,294.695 268.142 C 295.765 267.514,296.721 267.000,296.820 267.000 C 296.919 267.000,297.000 266.925,297.000 266.833 C 297.000 266.742,297.081 266.667,297.180 266.667 C 297.279 266.667,298.235 266.152,299.305 265.524 C 300.375 264.895,301.788 264.070,302.445 263.691 C 304.235 262.657,305.587 260.856,306.152 258.750 C 306.502 257.448,306.366 168.656,306.015 168.671 C 305.961 168.673,304.979 169.003,303.833 169.404 M205.957 204.514 C 205.796 204.608,205.590 204.639,205.499 204.583 C 205.408 204.526,205.333 204.551,205.333 204.637 C 205.333 204.724,205.165 204.835,204.958 204.884 C 204.010 205.110,202.552 205.526,202.250 205.656 C 202.067 205.735,201.129 206.078,200.167 206.417 C 199.204 206.756,198.267 207.093,198.083 207.167 C 197.900 207.240,196.963 207.578,196.000 207.917 C 195.037 208.256,194.100 208.593,193.917 208.666 C 193.733 208.739,192.946 209.023,192.167 209.296 C 188.867 210.455,187.218 211.053,186.725 211.269 C 186.436 211.396,186.140 211.500,186.067 211.500 C 185.894 211.500,183.171 212.483,182.794 212.681 C 182.635 212.765,182.421 212.833,182.319 212.833 C 182.217 212.833,181.897 212.937,181.609 213.063 C 181.320 213.190,180.446 213.518,179.667 213.793 C 176.652 214.856,175.228 215.364,174.667 215.579 C 174.346 215.702,173.296 216.081,172.333 216.421 C 171.371 216.762,169.646 217.378,168.500 217.790 C 167.354 218.203,165.779 218.763,165.000 219.035 C 164.221 219.307,163.453 219.597,163.294 219.681 C 163.135 219.765,162.921 219.833,162.819 219.833 C 162.717 219.833,162.397 219.937,162.109 220.063 C 161.820 220.190,160.946 220.518,160.167 220.794 C 156.614 222.048,155.226 222.543,154.917 222.667 C 154.733 222.740,153.796 223.078,152.833 223.417 C 151.871 223.756,150.933 224.093,150.750 224.167 C 150.567 224.240,149.629 224.579,148.667 224.920 C 147.704 225.260,146.126 225.830,145.160 226.186 C 144.193 226.542,143.342 226.833,143.268 226.833 C 143.194 226.833,142.897 226.937,142.609 227.063 C 142.320 227.190,141.446 227.518,140.667 227.794 C 136.985 229.093,135.724 229.544,135.417 229.670 C 135.233 229.745,134.577 229.981,133.958 230.194 C 133.237 230.442,132.834 230.670,132.834 230.832 C 132.834 231.059,134.856 235.181,135.164 235.583 C 135.234 235.675,135.578 236.275,135.927 236.917 C 137.199 239.252,141.817 245.947,142.653 246.667 C 142.706 246.713,143.050 247.124,143.417 247.580 C 145.466 250.132,149.491 254.117,153.096 257.161 C 153.364 257.388,154.521 258.268,155.667 259.118 C 156.813 259.968,157.825 260.721,157.917 260.790 C 159.854 262.260,167.004 266.296,169.424 267.285 C 169.938 267.495,171.224 268.039,172.083 268.410 C 172.838 268.735,176.192 269.957,176.667 270.080 C 176.896 270.139,177.233 270.253,177.417 270.332 C 177.711 270.460,179.071 270.860,180.833 271.339 C 181.154 271.426,182.092 271.649,182.917 271.835 C 183.742 272.020,184.717 272.243,185.083 272.330 C 185.711 272.480,188.531 272.929,191.333 273.327 C 194.660 273.799,206.333 273.857,207.843 273.408 C 207.986 273.366,208.923 273.223,209.926 273.092 C 212.638 272.735,215.117 272.264,217.750 271.605 C 219.459 271.177,219.898 271.059,220.500 270.864 C 220.821 270.761,221.608 270.514,222.250 270.317 C 223.657 269.883,226.797 268.752,227.833 268.305 C 228.246 268.127,228.733 267.917,228.917 267.838 C 229.755 267.475,231.989 266.439,232.667 266.099 C 235.462 264.696,240.105 262.004,239.741 261.997 C 239.532 261.993,241.117 261.000,241.333 261.000 C 241.425 261.000,241.500 260.925,241.500 260.833 C 241.500 260.742,241.612 260.667,241.750 260.667 C 241.887 260.667,242.000 260.587,242.000 260.490 C 242.000 260.393,242.068 260.356,242.151 260.407 C 242.235 260.459,242.482 260.294,242.702 260.042 C 242.921 259.790,243.208 259.559,243.340 259.528 C 243.472 259.498,243.618 259.414,243.665 259.342 C 243.712 259.270,244.275 258.819,244.917 258.341 C 245.558 257.862,246.159 257.383,246.252 257.277 C 246.344 257.170,246.757 256.825,247.168 256.509 C 247.580 256.194,248.292 255.575,248.750 255.135 C 252.288 251.736,254.148 249.863,255.337 248.500 C 256.096 247.629,256.763 246.879,256.817 246.833 C 256.872 246.787,257.290 246.262,257.746 245.667 C 258.202 245.071,258.633 244.558,258.704 244.528 C 258.775 244.497,258.833 244.364,258.833 244.231 C 258.833 244.098,258.943 243.947,259.077 243.896 C 259.211 243.845,259.362 243.673,259.412 243.514 C 259.463 243.355,259.672 243.045,259.877 242.825 C 260.082 242.605,260.251 242.385,260.253 242.337 C 260.260 242.144,260.914 241.167,261.036 241.167 C 261.108 241.167,261.167 241.066,261.167 240.942 C 261.167 240.819,261.298 240.563,261.458 240.373 C 261.619 240.183,261.881 239.871,262.042 239.679 C 262.202 239.487,262.333 239.218,262.333 239.081 C 262.333 238.945,262.391 238.833,262.460 238.833 C 262.530 238.833,262.662 238.687,262.752 238.508 C 262.843 238.330,263.099 237.823,263.321 237.383 C 263.544 236.943,263.827 236.522,263.951 236.448 C 264.112 236.350,263.963 236.198,263.421 235.906 C 261.129 234.673,258.925 233.457,258.750 233.330 C 258.658 233.263,258.096 232.947,257.500 232.627 C 255.988 231.814,254.837 231.177,254.250 230.828 C 253.975 230.664,253.412 230.349,253.000 230.127 C 252.588 229.906,251.537 229.324,250.667 228.833 C 249.796 228.343,248.746 227.761,248.333 227.539 C 247.921 227.318,247.358 227.003,247.083 226.839 C 246.496 226.489,245.345 225.852,243.833 225.040 C 243.237 224.720,242.675 224.403,242.583 224.336 C 242.419 224.216,241.448 223.680,239.333 222.541 C 238.737 222.220,238.175 221.903,238.083 221.836 C 237.919 221.716,236.948 221.180,234.833 220.041 C 234.237 219.720,233.675 219.403,233.583 219.336 C 233.419 219.216,232.448 218.680,230.333 217.541 C 229.737 217.220,229.175 216.903,229.083 216.836 C 228.919 216.716,227.948 216.180,225.833 215.041 C 225.237 214.720,224.675 214.400,224.583 214.330 C 224.434 214.215,223.294 213.588,221.667 212.726 C 221.346 212.556,221.046 212.379,221.000 212.333 C 220.920 212.254,220.013 211.751,218.917 211.178 C 218.642 211.034,218.379 210.879,218.333 210.833 C 218.288 210.787,217.875 210.563,217.417 210.333 C 216.958 210.104,216.546 209.879,216.500 209.833 C 216.420 209.754,215.513 209.251,214.417 208.678 C 214.142 208.534,213.879 208.379,213.833 208.333 C 213.787 208.287,213.487 208.111,213.167 207.940 C 211.849 207.241,210.406 206.444,210.250 206.330 C 210.158 206.263,209.596 205.947,209.000 205.627 C 208.404 205.307,207.633 204.885,207.287 204.689 C 206.584 204.292,206.383 204.266,205.957 204.514 " stroke="none" fill="#137efa" fill-rule="evenodd"></path><path id="path1" d="M306.235 173.833 C 306.235 175.346,306.260 175.965,306.291 175.208 C 306.322 174.452,306.322 173.215,306.291 172.458 C 306.260 171.702,306.235 172.321,306.235 173.833 M270.667 181.445 C 270.529 181.493,269.799 181.751,269.043 182.020 C 268.288 182.289,267.013 182.739,266.210 183.021 C 265.407 183.304,264.600 183.594,264.417 183.667 C 264.233 183.739,263.426 184.030,262.623 184.312 C 261.820 184.594,260.545 185.046,259.790 185.315 C 259.035 185.585,258.229 185.858,258.000 185.923 C 257.771 185.988,257.508 186.098,257.417 186.168 C 257.325 186.238,256.987 186.350,256.667 186.417 C 256.346 186.484,256.008 186.596,255.917 186.666 C 255.825 186.735,255.563 186.846,255.333 186.910 C 255.104 186.975,254.279 187.256,253.500 187.535 C 252.721 187.813,251.446 188.265,250.667 188.538 C 249.887 188.811,249.100 189.094,248.917 189.167 C 248.733 189.239,247.926 189.530,247.123 189.812 C 244.562 190.712,242.962 191.277,241.167 191.917 C 240.204 192.259,238.817 192.751,238.083 193.009 C 234.295 194.342,233.724 194.545,233.417 194.668 C 233.233 194.741,232.596 194.965,232.000 195.167 C 231.404 195.368,230.767 195.593,230.583 195.667 C 230.400 195.740,229.762 195.967,229.167 196.170 C 227.119 196.868,225.249 197.535,224.917 197.686 C 224.733 197.770,224.358 197.905,224.083 197.987 C 223.808 198.069,222.608 198.487,221.417 198.915 C 220.225 199.343,219.025 199.762,218.750 199.844 C 218.475 199.927,218.100 200.066,217.917 200.154 C 217.733 200.241,217.021 200.502,216.333 200.733 C 215.646 200.965,214.108 201.501,212.917 201.925 C 211.725 202.349,210.525 202.771,210.250 202.862 C 209.975 202.953,209.600 203.090,209.417 203.166 C 209.233 203.242,208.500 203.509,207.788 203.759 C 207.075 204.010,206.513 204.233,206.538 204.256 C 206.606 204.318,207.778 204.971,209.000 205.627 C 209.596 205.947,210.158 206.263,210.250 206.330 C 210.406 206.444,211.849 207.241,213.167 207.940 C 213.487 208.111,213.788 208.287,213.834 208.333 C 213.913 208.412,214.821 208.916,215.917 209.489 C 216.191 209.632,216.454 209.787,216.500 209.833 C 216.546 209.879,216.958 210.104,217.417 210.333 C 217.875 210.563,218.288 210.787,218.334 210.833 C 218.413 210.912,219.320 211.415,220.417 211.989 C 220.691 212.132,220.954 212.287,221.000 212.333 C 221.046 212.379,221.346 212.556,221.667 212.726 C 223.294 213.588,224.434 214.215,224.583 214.330 C 224.675 214.400,225.237 214.720,225.833 215.041 C 227.948 216.180,228.919 216.716,229.083 216.836 C 229.175 216.903,229.737 217.220,230.333 217.541 C 232.448 218.680,233.419 219.216,233.583 219.336 C 233.675 219.403,234.237 219.720,234.833 220.041 C 236.948 221.180,237.919 221.716,238.083 221.836 C 238.175 221.903,238.737 222.220,239.333 222.541 C 241.448 223.680,242.419 224.216,242.583 224.336 C 242.675 224.403,243.237 224.720,243.833 225.040 C 245.345 225.852,246.496 226.489,247.083 226.839 C 247.358 227.003,247.921 227.318,248.333 227.539 C 248.746 227.761,249.796 228.343,250.667 228.833 C 251.537 229.324,252.588 229.906,253.000 230.127 C 253.412 230.349,253.975 230.664,254.250 230.828 C 254.837 231.177,255.988 231.814,257.500 232.627 C 258.096 232.947,258.658 233.264,258.750 233.330 C 258.911 233.448,259.714 233.892,262.000 235.128 C 262.596 235.450,263.231 235.815,263.412 235.940 C 263.886 236.267,264.224 236.218,264.432 235.790 C 264.532 235.585,265.106 234.442,265.706 233.250 C 266.306 232.058,266.960 230.708,267.158 230.250 C 267.356 229.792,267.585 229.267,267.667 229.083 C 267.749 228.900,267.978 228.338,268.178 227.833 C 268.377 227.329,268.637 226.692,268.756 226.417 C 268.963 225.939,270.004 222.849,270.554 221.083 C 273.938 210.205,274.463 196.125,271.920 184.417 C 271.781 183.775,271.579 182.819,271.471 182.292 C 271.280 181.360,271.190 181.266,270.667 181.445 M263.451 237.108 C 263.043 237.929,263.169 237.962,263.633 237.155 C 263.840 236.795,263.951 236.502,263.880 236.504 C 263.808 236.506,263.616 236.778,263.451 237.108 M260.538 241.762 C 260.332 242.076,260.197 242.333,260.237 242.333 C 260.353 242.333,261.043 241.321,260.975 241.252 C 260.941 241.218,260.744 241.448,260.538 241.762 M254.658 249.292 L 254.083 249.917 254.708 249.342 C 255.052 249.026,255.333 248.745,255.333 248.717 C 255.333 248.590,255.192 248.710,254.658 249.292 M251.845 252.170 C 251.072 252.901,250.511 253.500,250.599 253.500 C 250.686 253.500,251.354 252.900,252.083 252.167 C 253.786 250.454,253.655 250.456,251.845 252.170 M249.414 254.462 C 249.229 254.620,248.931 254.938,248.751 255.167 C 248.572 255.396,248.742 255.287,249.129 254.925 C 249.767 254.328,249.915 254.159,249.792 254.170 C 249.769 254.172,249.599 254.304,249.414 254.462 M240.333 261.508 C 239.921 261.775,239.658 261.995,239.750 261.996 C 239.842 261.997,240.254 261.774,240.667 261.500 C 241.079 261.226,241.342 261.006,241.250 261.011 C 241.158 261.017,240.746 261.240,240.333 261.508 " stroke="none" fill="#0c3cc4" fill-rule="evenodd"></path><path id="path2" d="M198.667 78.438 C 197.717 78.622,197.019 78.913,195.869 79.604 C 195.201 80.005,194.612 80.333,194.559 80.333 C 194.507 80.333,193.530 80.896,192.390 81.583 C 191.249 82.271,190.285 82.833,190.249 82.833 C 190.212 82.833,189.072 83.480,187.716 84.270 C 182.859 87.099,181.042 88.153,178.250 89.760 C 176.692 90.658,174.629 91.855,173.667 92.422 C 172.704 92.989,171.692 93.568,171.417 93.710 C 170.273 94.298,168.900 96.044,168.239 97.750 C 167.926 98.558,167.917 99.218,167.917 119.861 C 167.917 131.564,167.864 141.191,167.800 141.256 C 167.670 141.385,167.627 141.217,167.262 139.167 C 167.024 137.829,166.597 135.482,166.082 132.667 C 165.956 131.979,165.735 130.742,165.591 129.917 C 165.446 129.092,165.253 128.042,165.160 127.583 C 164.959 126.585,164.237 122.611,163.918 120.750 C 163.792 120.017,163.570 118.779,163.424 118.000 C 163.278 117.221,163.053 115.983,162.924 115.250 C 162.795 114.517,162.570 113.279,162.424 112.500 C 162.123 110.894,161.737 108.727,161.489 107.250 C 160.478 101.227,159.449 100.614,154.833 103.282 C 151.864 104.999,150.903 105.563,149.941 106.152 C 149.329 106.527,148.794 106.833,148.752 106.833 C 148.711 106.833,148.056 107.200,147.297 107.647 C 145.995 108.415,145.550 108.670,144.042 109.518 C 143.698 109.711,142.618 110.348,141.643 110.934 C 140.667 111.520,139.827 112.000,139.775 112.000 C 139.724 112.000,138.937 112.450,138.027 113.000 C 137.116 113.550,136.288 114.000,136.186 114.000 C 136.084 114.000,136.000 114.066,136.000 114.147 C 136.000 114.228,135.869 114.336,135.708 114.387 C 135.548 114.438,135.229 114.595,135.000 114.736 C 133.532 115.640,130.636 117.333,130.558 117.333 C 130.506 117.333,129.530 117.896,128.390 118.583 C 127.249 119.271,126.283 119.833,126.243 119.833 C 126.203 119.833,125.413 120.283,124.486 120.833 C 123.560 121.383,122.767 121.833,122.723 121.833 C 122.679 121.833,122.316 122.058,121.917 122.333 C 121.517 122.608,121.141 122.833,121.082 122.833 C 121.023 122.833,120.099 123.348,119.029 123.977 C 114.232 126.796,112.021 128.081,111.208 128.522 C 110.726 128.783,110.033 129.186,109.667 129.417 C 109.301 129.648,108.607 130.051,108.126 130.312 C 107.212 130.808,104.494 132.381,101.083 134.389 C 99.983 135.037,98.858 135.678,98.583 135.814 C 96.016 137.087,94.274 139.179,93.829 141.522 C 93.492 143.298,93.619 232.529,93.958 232.342 C 94.119 232.254,94.813 231.993,95.500 231.764 C 96.188 231.534,97.706 231.006,98.875 230.590 C 100.044 230.174,101.956 229.493,103.125 229.077 C 104.294 228.661,105.813 228.131,106.500 227.900 C 107.188 227.669,107.900 227.408,108.083 227.320 C 108.267 227.233,108.642 227.095,108.917 227.013 C 109.192 226.931,110.392 226.513,111.583 226.084 C 112.775 225.656,114.013 225.228,114.333 225.135 C 114.654 225.042,114.992 224.907,115.083 224.835 C 115.175 224.764,115.510 224.649,115.828 224.581 C 116.146 224.513,116.521 224.398,116.661 224.326 C 116.802 224.253,117.704 223.917,118.667 223.578 C 119.629 223.239,120.906 222.783,121.504 222.564 C 122.101 222.346,122.652 222.167,122.728 222.167 C 122.804 222.167,123.103 222.063,123.391 221.936 C 123.680 221.809,124.404 221.539,125.000 221.336 C 125.596 221.133,126.233 220.905,126.417 220.829 C 126.600 220.754,127.875 220.304,129.250 219.830 C 130.625 219.356,132.537 218.684,133.500 218.337 C 134.462 217.990,135.737 217.539,136.333 217.336 C 136.929 217.133,137.567 216.907,137.750 216.833 C 137.933 216.760,138.571 216.535,139.167 216.333 C 139.762 216.132,140.400 215.899,140.583 215.815 C 140.767 215.730,141.142 215.595,141.417 215.513 C 141.692 215.431,142.892 215.013,144.083 214.584 C 145.275 214.156,146.512 213.728,146.833 213.635 C 147.154 213.542,147.492 213.407,147.583 213.335 C 147.675 213.264,147.999 213.152,148.303 213.087 C 148.607 213.022,149.057 212.864,149.303 212.735 C 149.549 212.607,149.821 212.502,149.908 212.501 C 149.995 212.500,150.708 212.266,151.492 211.980 C 152.275 211.695,153.404 211.291,154.000 211.083 C 156.150 210.332,158.590 209.464,158.917 209.333 C 159.100 209.259,159.737 209.035,160.333 208.833 C 160.929 208.632,161.567 208.405,161.750 208.329 C 161.933 208.252,162.965 207.884,164.042 207.511 C 165.119 207.139,166.881 206.528,167.958 206.155 C 169.035 205.782,170.067 205.415,170.250 205.338 C 170.433 205.262,171.071 205.035,171.667 204.833 C 172.262 204.632,172.900 204.408,173.083 204.334 C 173.267 204.261,174.054 203.978,174.833 203.704 C 175.612 203.431,176.891 202.973,177.675 202.687 C 178.459 202.401,179.160 202.167,179.233 202.167 C 179.306 202.167,179.603 202.060,179.891 201.930 C 180.180 201.800,180.979 201.502,181.667 201.270 C 182.354 201.037,183.892 200.500,185.083 200.076 C 186.275 199.653,187.550 199.207,187.917 199.086 C 188.283 198.965,189.558 198.514,190.750 198.085 C 191.942 197.655,193.142 197.229,193.417 197.138 C 193.692 197.047,194.067 196.911,194.250 196.836 C 194.433 196.761,195.071 196.535,195.667 196.333 C 196.262 196.132,196.900 195.906,197.083 195.831 C 197.267 195.756,197.679 195.606,198.000 195.498 C 198.998 195.162,203.978 193.401,206.250 192.580 C 207.442 192.150,208.717 191.699,209.083 191.579 C 209.450 191.459,210.725 191.010,211.917 190.581 C 213.108 190.152,214.383 189.701,214.750 189.579 C 215.117 189.457,216.392 189.011,217.583 188.587 C 218.775 188.164,220.313 187.629,221.000 187.398 C 221.688 187.168,222.400 186.916,222.583 186.840 C 222.901 186.706,224.751 186.045,227.833 184.963 C 228.612 184.689,229.400 184.404,229.583 184.328 C 229.767 184.253,231.042 183.804,232.417 183.330 C 235.274 182.345,237.597 181.526,238.083 181.333 C 238.407 181.204,240.795 180.354,243.000 179.583 C 243.596 179.375,244.871 178.925,245.833 178.583 C 246.796 178.242,248.071 177.792,248.667 177.584 C 249.262 177.376,250.407 176.974,251.210 176.690 C 252.013 176.407,253.288 175.957,254.043 175.691 C 254.799 175.424,256.204 174.926,257.167 174.583 C 258.129 174.241,259.554 173.736,260.333 173.463 C 261.112 173.189,261.900 172.904,262.083 172.828 C 262.267 172.753,263.542 172.304,264.917 171.830 C 267.789 170.840,270.101 170.025,270.583 169.832 C 270.767 169.759,271.404 169.535,272.000 169.333 C 272.596 169.132,273.233 168.908,273.417 168.834 C 273.805 168.679,276.104 167.869,277.667 167.337 C 278.262 167.134,278.900 166.908,279.083 166.834 C 279.267 166.761,280.054 166.477,280.833 166.204 C 281.612 165.930,283.037 165.426,284.000 165.084 C 284.962 164.742,286.237 164.292,286.833 164.083 C 287.429 163.875,288.704 163.425,289.667 163.082 C 290.629 162.740,292.054 162.236,292.833 161.963 C 293.612 161.689,294.400 161.406,294.583 161.332 C 294.767 161.259,295.404 161.035,296.000 160.833 C 296.596 160.632,297.233 160.404,297.417 160.327 C 297.600 160.250,298.313 159.998,299.000 159.767 C 299.688 159.535,301.225 158.999,302.417 158.575 C 303.608 158.151,304.808 157.729,305.083 157.638 C 305.358 157.547,305.752 157.391,305.958 157.291 L 306.333 157.110 306.333 149.415 C 306.333 137.987,306.833 138.834,296.667 133.008 C 295.337 132.246,293.313 131.079,292.167 130.416 C 291.021 129.752,288.921 128.535,287.500 127.712 C 286.079 126.889,283.995 125.680,282.869 125.025 C 281.743 124.369,280.792 123.833,280.755 123.833 C 280.718 123.833,279.810 123.308,278.738 122.667 C 277.666 122.025,276.756 121.500,276.715 121.500 C 276.674 121.500,275.765 120.984,274.695 120.353 C 273.625 119.723,271.550 118.513,270.083 117.664 C 268.617 116.816,266.605 115.644,265.612 115.061 C 264.619 114.477,263.770 114.000,263.724 114.000 C 263.678 114.000,262.765 113.484,261.695 112.853 C 258.974 111.249,255.888 109.458,255.000 108.967 C 253.993 108.410,250.162 106.196,248.000 104.921 C 243.388 102.202,242.874 101.952,241.894 101.952 C 240.073 101.952,239.503 102.757,238.909 106.167 C 238.773 106.946,238.557 108.146,238.429 108.833 C 238.301 109.521,238.077 110.740,237.932 111.542 C 237.552 113.631,237.166 115.737,236.914 117.083 C 236.709 118.180,236.468 119.486,235.905 122.542 C 235.774 123.252,235.560 124.415,235.429 125.125 C 234.866 128.180,234.624 129.487,234.419 130.583 C 234.189 131.814,233.804 133.918,233.426 136.000 C 232.912 138.829,232.825 139.290,232.640 140.167 C 232.533 140.671,232.383 141.155,232.307 141.242 C 232.230 141.329,232.158 135.141,232.147 127.492 C 232.114 105.186,231.982 98.065,231.584 97.250 C 230.622 95.276,227.431 92.333,226.252 92.333 C 226.214 92.333,225.297 91.798,224.216 91.144 C 223.135 90.490,221.838 89.731,221.333 89.458 C 220.829 89.186,219.554 88.456,218.500 87.838 C 217.446 87.220,215.608 86.152,214.417 85.465 C 213.225 84.777,211.142 83.567,209.789 82.774 C 208.435 81.982,207.254 81.333,207.164 81.333 C 207.074 81.333,207.000 81.258,207.000 81.167 C 207.000 81.075,206.916 81.000,206.814 81.000 C 206.712 81.000,205.906 80.566,205.023 80.035 C 202.632 78.597,200.545 78.073,198.667 78.438 " stroke="none" fill="#fcac04" fill-rule="evenodd"></path><path id="path3" d="" stroke="none" fill="#000000" fill-rule="evenodd"></path><path id="path4" d="" stroke="none" fill="#1007404" fill-rule="evenodd"></path></g></svg>