<?xml version="1.0" encoding="UTF-8" standalone="no"?>
<!-- Created with Inkscape (http://www.inkscape.org/) -->

<svg
   width="210mm"
   height="297mm"
   viewBox="0 0 210 297"
   version="1.1"
   id="svg5"
   inkscape:version="1.1 (c68e22c387, 2021-05-23)"
   sodipodi:docname="generierte Vektorgrafik.svg"
   xmlns:inkscape="http://www.inkscape.org/namespaces/inkscape"
   xmlns:sodipodi="http://sodipodi.sourceforge.net/DTD/sodipodi-0.dtd"
   xmlns="http://www.w3.org/2000/svg"
   xmlns:svg="http://www.w3.org/2000/svg">
  <sodipodi:namedview
     id="namedview7"
     pagecolor="#ffffff"
     bordercolor="#999999"
     borderopacity="1"
     inkscape:pageshadow="0"
     inkscape:pageopacity="0"
     inkscape:pagecheckerboard="0"
     inkscape:document-units="mm"
     showgrid="false"
     inkscape:zoom="0.45254834"
     inkscape:cx="520.3864"
     inkscape:cy="469.5631"
     inkscape:window-width="1449"
     inkscape:window-height="1081"
     inkscape:window-x="753"
     inkscape:window-y="109"
     inkscape:window-maximized="0"
     inkscape:current-layer="layer1" />
  <defs
     id="defs2" />
  <g
     inkscape:label="Ebene 1"
     inkscape:groupmode="layer"
     id="layer1">
    <g
       id="g2668"
       transform="matrix(0.02590115,0,0,0.02590115,89.565614,104.21537)">
      <path
         style="fill:#fefefe;stroke-width:2.53973"
         d="m -1861.0632,1610.6828 v -3088.3083 h 2701 2701 v 3088.3083 3088.3084 h -2701 -2701 z"
         id="path2694" />
      <path
         style="fill:#fee0a0;stroke-width:2.53973"
         d="m 815.9633,4696.2308 c -30.92118,-4.0016 -48.31349,-11.4263 -110.789,-47.2953 -33.5529,-19.2639 -606.500042,-350.4593 -1273.21577,-735.9899 -938.73053,-542.824 -1215.58533,-704.0109 -1227.16983,-714.4672 -17.0741,-15.411 -39.3881,-47.632 -49.1203,-70.929 -13.9665,-33.4332 -14.0655,-34.7787 -15.8779,-215.8913 -0.9261,-92.5413 -1.107,-168.2569 -0.402,-168.2569 0.705,0 169.1033,-60.001 374.2185,-133.3357 205.1152,-73.3346 374.3654,-133.3357 376.1116,-133.3357 1.7462,0 3.9652,2.5715 4.9311,5.7144 3.1274,10.1765 53.4767,111.3663 73.6105,147.9391 148.18734,269.1807 356.0673,507.2455 603.08281,690.6527 580.84559,431.2734 1338.14219,537.7812 2019.08319,283.9682 379.8437,-141.5824 720.8165,-399.0333 966.2131,-729.5372 350.6106,-472.2079 489.4837,-1064.6214 386.1366,-1647.2061 -9.0549,-51.0445 -27.4788,-134.9367 -36.7666,-167.4138 -2.767,-9.6757 -4.1857,-18.3357 -3.1526,-19.2444 4.0268,-3.5419 631.0052,-226.15686 632.5638,-224.59811 0.9113,0.91108 2.0836,511.61821 2.6053,1134.90431 0.8467,1011.4317 0.5305,1134.8774 -2.9408,1148.4053 -10.024,39.063 -28.974,72.4284 -56.209,98.9681 -14.0246,13.6665 -146.8732,90.988 -1287.9226,749.6076 -859.0183,495.8294 -1277.60807,736.1092 -1288.67264,739.7265 -15.04941,4.9202 -52.76081,10.7507 -64.88369,10.0319 -2.7937,-0.165 -12.43882,-1.2536 -21.43377,-2.4175 z M 711.68057,3479.741 C 487.61496,3463.8014 271.34161,3410.0913 72.324994,3320.9608 -296.70048,3155.6909 -603.0746,2874.3097 -801.31987,2518.5846 c -24.11019,-43.2628 -64.52396,-126.3279 -62.44293,-128.3434 1.93586,-1.8748 1760.49984,-633.8034 1791.32019,-643.6992 7.68268,-2.4668 397.31371,-140.3649 865.84691,-306.4399 468.5332,-166.0751 852.7652,-301.0646 853.8489,-299.9769 4.8895,4.9073 28.4676,116.4925 38.7885,183.5685 23.8745,155.1616 28.3454,322.4407 12.7279,476.1988 -36.1241,355.6424 -172.1392,692.4993 -391.7352,970.1758 -61.87,78.2338 -147.775,169.6467 -221.3614,235.5539 -228.3639,204.5331 -499.8894,348.7411 -797.4743,423.5412 -77.1524,19.3928 -184.1376,37.6494 -276.8303,47.2399 -46.04729,4.7643 -248.01352,7.0135 -299.68783,3.3377 z M -1858.4794,1287.7779 c 0.048,-1243.256901 -0.9517,-1157.95318 13.9866,-1193.47266 13.4802,-32.052348 40.8425,-68.125999 63.431,-83.625625 9.3887,-6.4422718 1485.90125,-860.800805 1522.31173,-880.859445 13.65563,-7.52293 19.4106,-9.13682 36.00703,-10.09758 16.69259,-0.96631 21.55215,-0.27287 31.35969,4.47488 13.77896,6.67028 27.2195,21.5618 32.83621,36.38108 2.2297,5.88295 42.34421,221.55712 89.143311,479.27595 46.799124,257.71882 86.310601,472.86546 87.803326,478.10365 3.772486,13.23843 6.898763,11.8891 8.826594,-3.80959 0.900562,-7.33346 1.268517,-252.19492 0.817665,-544.13656 l -0.819697,-530.803 7.171098,-20.31782 c 8.285708,-23.47588 18.526422,-42.45188 33.579741,-62.22328 15.120698,-19.8599 29.726797,-32.5647 54.488932,-47.3962 69.75392,-41.7796 643.13388,-371.5435 652.10852,-375.0424 13.89916,-5.4189 50.76381,-11.8548 67.90418,-11.8548 21.19351,0 56.07083,7.0801 73.1543,14.8505 16.1768,7.3578 642.44177,368.8226 661.01937,381.5241 26.143,17.874 53.8463,56.3975 68.1287,94.73866 l 7.6893,20.64178 2.8188,546.04136 c 1.5503,300.32275 3.0195,546.39454 3.2651,546.82619 1.7575,3.08788 5.5818,-4.41605 9.1222,-17.89865 2.2967,-8.74644 42.4071,-223.61775 89.1343,-477.49179 68.6849,-373.17124 86.1402,-463.90117 91.1272,-473.65913 7.5059,-14.68661 19.9208,-26.98214 32.5727,-32.25908 12.848,-5.3587 37.281,-5.00461 52.1188,0.75534 16.5826,6.43727 1519.9018,874.5798177 1536.6323,887.380272 26.1678,20.021025 52.7425,60.575416 64.4931,98.419718 l 5.9142,19.04795 v 195.4697 195.4697 L 846.28612,1475.3268 c -1481.35945,524.2025 -2695.95232,953.8027 -2699.09522,954.667 l -5.7144,1.5716 z"
         id="path2692" />
      <path
         style="fill:#a4d3fd;stroke-width:2.53973"
         d="m 815.9633,4696.2308 c -30.92118,-4.0016 -48.31349,-11.4263 -110.789,-47.2953 -33.5529,-19.2639 -606.500042,-350.4593 -1273.21577,-735.9899 -938.73053,-542.824 -1215.58533,-704.0109 -1227.16983,-714.4672 -17.0741,-15.411 -39.3881,-47.632 -49.1203,-70.929 -13.9665,-33.4332 -14.0655,-34.7787 -15.8779,-215.8913 -0.9261,-92.5413 -1.107,-168.2569 -0.402,-168.2569 0.705,0 169.1033,-60.001 374.2185,-133.3357 205.1152,-73.3346 374.3654,-133.3357 376.1116,-133.3357 1.7462,0 3.9652,2.5715 4.9311,5.7144 3.1274,10.1765 53.4767,111.3663 73.6105,147.9391 148.18734,269.1807 356.0673,507.2455 603.08281,690.6527 580.84559,431.2734 1338.14219,537.7812 2019.08319,283.9682 379.8437,-141.5824 720.8165,-399.0333 966.2131,-729.5372 350.6106,-472.2079 489.4837,-1064.6214 386.1366,-1647.2061 -9.0549,-51.0445 -27.4788,-134.9367 -36.7666,-167.4138 -2.767,-9.6757 -4.1857,-18.3357 -3.1526,-19.2444 4.0268,-3.5419 631.0052,-226.15686 632.5638,-224.59811 0.9113,0.91108 2.0836,511.61821 2.6053,1134.90431 0.8467,1011.4317 0.5305,1134.8774 -2.9408,1148.4053 -10.024,39.063 -28.974,72.4284 -56.209,98.9681 -14.0246,13.6665 -146.8732,90.988 -1287.9226,749.6076 -859.0183,495.8294 -1277.60807,736.1092 -1288.67264,739.7265 -15.04941,4.9202 -52.76081,10.7507 -64.88369,10.0319 -2.7937,-0.165 -12.43882,-1.2536 -21.43377,-2.4175 z M 711.68057,3479.741 C 487.61496,3463.8014 271.34161,3410.0913 72.324994,3320.9608 -296.70048,3155.6909 -603.0746,2874.3097 -801.31987,2518.5846 c -24.11019,-43.2628 -64.52396,-126.3279 -62.44293,-128.3434 1.93586,-1.8748 1760.49984,-633.8034 1791.32019,-643.6992 7.68268,-2.4668 397.31371,-140.3649 865.84691,-306.4399 468.5332,-166.0751 852.7652,-301.0646 853.8489,-299.9769 4.8895,4.9073 28.4676,116.4925 38.7885,183.5685 23.8745,155.1616 28.3454,322.4407 12.7279,476.1988 -36.1241,355.6424 -172.1392,692.4993 -391.7352,970.1758 -61.87,78.2338 -147.775,169.6467 -221.3614,235.5539 -228.3639,204.5331 -499.8894,348.7411 -797.4743,423.5412 -77.1524,19.3928 -184.1376,37.6494 -276.8303,47.2399 -46.04729,4.7643 -248.01352,7.0135 -299.68783,3.3377 z M -1857.8722,1282.7032 c 0.6648,-1098.57474 0.8958,-1149.53889 5.2744,-1164.11012 11.6054,-38.6198 39.4062,-82.015282 65.3819,-102.057209 18.0884,-13.9563856 1530.89243,-888.517691 1545.5589,-893.497081 40.36234,-13.70338 76.80552,8.64445 86.94302,53.31548 1.58499,6.98425 39.51066,214.98791 84.279276,462.23036 44.768612,247.24245 83.190038,457.531868 85.380934,467.30982 4.966183,22.16415 8.682794,27.71167 11.675076,17.42659 1.162941,-3.99723 1.853188,-247.84335 1.533893,-541.88027 -0.544949,-501.86083 -0.308729,-535.62394 3.855865,-551.12082 10.980029,-40.85795 40.992621,-86.46875 70.604956,-107.29985 31.86888,-22.4186 659.91878,-383.3973 677.98767,-389.681 34.16086,-11.88 88.35991,-11.8334 123.43507,0.1062 17.28284,5.8831 651.47074,370.7941 677.20254,389.6616 25.1827,18.4647 52.0779,58.8995 65.4005,98.32401 l 6.0077,17.77809 1.2699,539.69204 c 0.9656,410.402555 1.9929,540.90888 4.2886,544.7715 2.8328,4.76684 3.2625,4.49882 6.9807,-4.35472 4.4062,-10.49116 2.811,-2.03582 104.3538,-553.11542 57.202,-310.43962 74.1075,-397.75499 79.0216,-408.14392 11.6508,-24.63012 34.2101,-37.69773 61.6859,-35.73185 9.2017,0.65837 20.7217,3.2062 25.5995,5.66178 4.8778,2.45562 349.9198,201.20294 766.7599,441.66071 818.3679,472.08242 776.6897,446.974295 800.7377,482.386424 12.9259,19.034367 22.7988,39.074516 30.288,61.478086 l 5.9427,17.77809 0.7962,194.60759 c 0.7581,185.29647 0.5778,194.69278 -3.7651,196.38845 -2.5085,0.97947 -1216.0111,430.41964 -2696.6721,954.31144 -1480.66102,523.8919 -2693.5495,953.0809 -2695.3076,953.7532 -2.5668,0.9819 -3.0597,-225.1504 -2.5014,-1147.6492 z"
         id="path2690" />
      <path
         style="fill:#76c3fe;stroke-width:2.53973"
         d="m 799.30116,4692.7013 c -8.3811,-1.8405 -20.95275,-5.5666 -27.937,-8.28 -16.67153,-6.4771 -2540.88906,-1466.1526 -2557.79416,-1479.0917 -22.01,-16.8465 -48.5467,-53.9281 -59.605,-83.2901 -11.3104,-30.0315 -11.9312,-39.6406 -13.7165,-212.2862 l -1.707,-165.0822 372.9026,-133.1275 c 205.0965,-73.2198 374.2101,-133.5825 375.8081,-134.1389 1.6747,-0.5832 15.8146,25.3312 33.3815,61.1789 104.26556,212.7677 232.18564,393.7804 396.69459,561.3407 80.61628,82.1117 151.62096,144.4973 241.31608,212.0238 311.39442,234.4313 674.14974,377.4205 1060.33615,417.9584 77.66766,8.1527 122.20838,10.1962 222.22614,10.1962 100.01777,0 144.55849,-2.0435 222.22614,-10.1962 221.0188,-23.2005 437.7657,-80.8751 638.7414,-169.9647 336.7257,-149.2651 627.9423,-381.4175 849.6282,-677.3074 333.4119,-445.0133 478.3922,-997.5269 407.4025,-1552.5914 -10.2605,-80.2249 -30.3327,-184.8282 -49.163,-256.2039 l -8.3956,-31.8233 10.4334,-3.6574 c 5.7386,-2.0116 148.0745,-52.90238 316.3023,-113.09062 168.2277,-60.18823 306.127,-109.16687 306.4427,-108.8414 0.3159,0.32544 1.3844,509.17212 2.3744,1130.77032 1.394,875.2439 1.1119,1133.9024 -1.2508,1146.6869 -8.5223,46.1166 -42.6306,98.5995 -80.0924,123.24 -13.8229,9.092 -2519.32692,1455.6256 -2535.8707,1464.0656 -27.18525,13.8687 -84.88734,19.3731 -120.68404,11.5121 z M 739.61757,3480.7221 c -339.25982,-19.4314 -650.847156,-121.467 -930.26539,-304.6344 -278.17643,-182.3534 -507.1407,-442.0169 -653.58166,-741.2131 -11.60909,-23.7185 -20.28475,-43.8303 -19.27922,-44.6926 2.75776,-2.365 1737.15073,-624.8277 1808.84418,-649.183 34.22283,-11.6258 67.93772,-23.3738 74.92192,-26.1068 25.6,-10.0172 1620.4614,-574.7639 1623.935,-575.0418 4.5364,-0.3626 11.6291,26.5087 26.7385,101.3021 71.4407,353.6395 39.0721,720.908 -93.2271,1057.7964 -77.6697,197.7793 -189.3024,380.535 -334.3142,547.3113 -34.1283,39.2507 -132.4343,137.5567 -171.6851,171.685 -316.3921,275.1028 -698.2086,433.8779 -1110.69788,461.8743 -34.73306,2.3574 -185.27438,2.9712 -221.38905,0.9026 z M -1857.8722,1282.7032 c 0.6648,-1098.57474 0.8958,-1149.53889 5.2744,-1164.11012 11.6054,-38.6198 39.4062,-82.015282 65.3819,-102.057209 18.0884,-13.9563856 1530.89243,-888.517691 1545.5589,-893.497081 40.36234,-13.70338 76.80552,8.64445 86.94302,53.31548 1.58499,6.98425 39.51066,214.98791 84.279276,462.23036 44.768612,247.24245 83.190038,457.531868 85.380934,467.30982 4.966183,22.16415 8.682794,27.71167 11.675076,17.42659 1.162941,-3.99723 1.853188,-247.84335 1.533893,-541.88027 -0.544949,-501.86083 -0.308729,-535.62394 3.855865,-551.12082 10.980029,-40.85795 40.992621,-86.46875 70.604956,-107.29985 31.86888,-22.4186 659.91878,-383.3973 677.98767,-389.681 34.16086,-11.88 88.35991,-11.8334 123.43507,0.1062 17.28284,5.8831 651.47074,370.7941 677.20254,389.6616 25.1827,18.4647 52.0779,58.8995 65.4005,98.32401 l 6.0077,17.77809 1.2699,539.69204 c 0.9656,410.402555 1.9929,540.90888 4.2886,544.7715 2.8328,4.76684 3.2625,4.49882 6.9807,-4.35472 4.4062,-10.49116 2.811,-2.03582 104.3538,-553.11542 57.202,-310.43962 74.1075,-397.75499 79.0216,-408.14392 11.6508,-24.63012 34.2101,-37.69773 61.6859,-35.73185 9.2017,0.65837 20.7217,3.2062 25.5995,5.66178 4.8778,2.45562 349.9198,201.20294 766.7599,441.66071 818.3679,472.08242 776.6897,446.974295 800.7377,482.386424 12.9259,19.034367 22.7988,39.074516 30.288,61.478086 l 5.9427,17.77809 0.7962,194.60759 c 0.7581,185.29647 0.5778,194.69278 -3.7651,196.38845 -2.5085,0.97947 -1216.0111,430.41964 -2696.6721,954.31144 -1480.66102,523.8919 -2693.5495,953.0809 -2695.3076,953.7532 -2.5668,0.9819 -3.0597,-225.1504 -2.5014,-1147.6492 z"
         id="path2688" />
      <path
         style="fill:#95aef3;stroke-width:2.53973"
         d="m 800.57103,4692.8194 c -9.07953,-1.9106 -21.65118,-5.5214 -27.937,-8.0243 -6.28583,-2.5029 -166.86009,-94.3996 -356.83169,-204.2149 C -1791.1889,3204.8018 -1777.7102,3212.6326 -1795.6311,3195.7759 c -19.8173,-18.6403 -37.5965,-44.1008 -47.8001,-68.4515 -13.8875,-33.1427 -14.6387,-43.3783 -16.1531,-220.1108 l -1.3929,-162.5425 373.4273,-133.3357 c 205.385,-73.3346 374.4205,-133.6864 375.6345,-134.1149 1.214,-0.4287 7.6532,11.0001 14.3093,25.3973 68.4919,148.1469 165.25962,304.1628 269.06289,433.8027 94.19148,117.6356 221.29714,244.7413 338.93276,338.9327 313.42313,250.9596 695.00443,409.1422 1093.35261,453.2438 88.97579,9.8506 125.1509,11.6207 237.4645,11.6207 112.3136,0 148.48872,-1.7701 237.46454,-11.6207 398.3481,-44.1016 779.9294,-202.2842 1093.3526,-453.2438 117.6356,-94.1914 244.7413,-221.2971 338.9327,-338.9327 212.3705,-265.2291 359.9106,-582.2399 425.5255,-914.3018 16.9963,-86.0142 28.2887,-169.1276 36.0593,-265.4015 4.367,-54.1036 4.367,-248.124 0,-302.2276 -10.5666,-130.9138 -29.502,-249.8533 -57.5663,-361.5944 -6.4466,-25.6673 -11.3444,-47.7978 -10.884,-49.1788 0.4602,-1.3809 142.5102,-53.14494 315.6666,-115.03126 l 314.8299,-112.52056 2.1186,1130.09222 c 2.3124,1233.6042 3.1864,1145.8789 -11.7841,1182.9422 -10.3958,25.7376 -22.2348,43.3757 -43.6688,65.0597 l -20.3178,20.5547 -1271.0175,733.6343 c -983.9594,567.9437 -1275.34563,735.0405 -1290.18144,739.8599 -23.85719,7.75 -73.12409,9.9915 -99.16543,4.5118 z M 739.61757,3480.7221 c -339.25982,-19.4314 -650.847156,-121.467 -930.26539,-304.6344 -278.17643,-182.3534 -507.1407,-442.0169 -653.58166,-741.2131 -11.60909,-23.7185 -20.28475,-43.8303 -19.27922,-44.6926 2.75776,-2.365 1737.15073,-624.8277 1808.84418,-649.183 34.22283,-11.6258 67.93772,-23.3738 74.92192,-26.1068 25.6,-10.0172 1620.4614,-574.7639 1623.935,-575.0418 4.5364,-0.3626 11.6291,26.5087 26.7385,101.3021 71.4407,353.6395 39.0721,720.908 -93.2271,1057.7964 -77.6697,197.7793 -189.3024,380.535 -334.3142,547.3113 -34.1283,39.2507 -132.4343,137.5567 -171.6851,171.685 -316.3921,275.1028 -698.2086,433.8779 -1110.69788,461.8743 -34.73306,2.3574 -185.27438,2.9712 -221.38905,0.9026 z M -1857.8722,1282.7032 c 0.6648,-1098.57474 0.8958,-1149.53889 5.2744,-1164.11012 11.6054,-38.6198 39.4062,-82.015282 65.3819,-102.057209 18.0884,-13.9563856 1530.89243,-888.517691 1545.5589,-893.497081 40.36234,-13.70338 76.80552,8.64445 86.94302,53.31548 1.58499,6.98425 39.51066,214.98791 84.279276,462.23036 44.768612,247.24245 83.190038,457.531868 85.380934,467.30982 4.966183,22.16415 8.682794,27.71167 11.675076,17.42659 1.162941,-3.99723 1.853188,-247.84335 1.533893,-541.88027 -0.544949,-501.86083 -0.308729,-535.62394 3.855865,-551.12082 10.980029,-40.85795 40.992621,-86.46875 70.604956,-107.29985 31.86888,-22.4186 659.91878,-383.3973 677.98767,-389.681 34.16086,-11.88 88.35991,-11.8334 123.43507,0.1062 17.28284,5.8831 651.47074,370.7941 677.20254,389.6616 25.1827,18.4647 52.0779,58.8995 65.4005,98.32401 l 6.0077,17.77809 1.2699,539.69204 c 0.9656,410.402555 1.9929,540.90888 4.2886,544.7715 2.8328,4.76684 3.2625,4.49882 6.9807,-4.35472 4.4062,-10.49116 2.811,-2.03582 104.3538,-553.11542 57.202,-310.43962 74.1075,-397.75499 79.0216,-408.14392 11.6508,-24.63012 34.2101,-37.69773 61.6859,-35.73185 9.2017,0.65837 20.7217,3.2062 25.5995,5.66178 4.8778,2.45562 349.9198,201.20294 766.7599,441.66071 818.3679,472.08242 776.6897,446.974295 800.7377,482.386424 12.9259,19.034367 22.7988,39.074516 30.288,61.478086 l 5.9427,17.77809 0.7962,194.60759 c 0.7581,185.29647 0.5778,194.69278 -3.7651,196.38845 -2.5085,0.97947 -1216.0111,430.41964 -2696.6721,954.31144 -1480.66102,523.8919 -2693.5495,953.0809 -2695.3076,953.7532 -2.5668,0.9819 -3.0597,-225.1504 -2.5014,-1147.6492 z"
         id="path2686" />
      <path
         style="fill:#fecb5f;stroke-width:2.53973"
         d="m 800.57103,4692.8194 c -9.07953,-1.9106 -21.65118,-5.5214 -27.937,-8.0243 -6.28583,-2.5029 -166.86009,-94.3996 -356.83169,-204.2149 C -1791.1889,3204.8018 -1777.7102,3212.6326 -1795.6311,3195.7759 c -19.8173,-18.6403 -37.5965,-44.1008 -47.8001,-68.4515 -13.8875,-33.1427 -14.6387,-43.3783 -16.1531,-220.1108 l -1.3929,-162.5425 373.4273,-133.3357 c 205.385,-73.3346 374.4205,-133.6864 375.6345,-134.1149 1.214,-0.4287 7.6532,11.0001 14.3093,25.3973 68.4919,148.1469 165.25962,304.1628 269.06289,433.8027 94.19148,117.6356 221.29714,244.7413 338.93276,338.9327 313.42313,250.9596 695.00443,409.1422 1093.35261,453.2438 88.97579,9.8506 125.1509,11.6207 237.4645,11.6207 112.3136,0 148.48872,-1.7701 237.46454,-11.6207 398.3481,-44.1016 779.9294,-202.2842 1093.3526,-453.2438 117.6356,-94.1914 244.7413,-221.2971 338.9327,-338.9327 212.3705,-265.2291 359.9106,-582.2399 425.5255,-914.3018 16.9963,-86.0142 28.2887,-169.1276 36.0593,-265.4015 4.367,-54.1036 4.367,-248.124 0,-302.2276 -10.5666,-130.9138 -29.502,-249.8533 -57.5663,-361.5944 -6.4466,-25.6673 -11.3444,-47.7978 -10.884,-49.1788 0.4602,-1.3809 142.5102,-53.14494 315.6666,-115.03126 l 314.8299,-112.52056 2.1186,1130.09222 c 2.3124,1233.6042 3.1864,1145.8789 -11.7841,1182.9422 -10.3958,25.7376 -22.2348,43.3757 -43.6688,65.0597 l -20.3178,20.5547 -1271.0175,733.6343 c -983.9594,567.9437 -1275.34563,735.0405 -1290.18144,739.8599 -23.85719,7.75 -73.12409,9.9915 -99.16543,4.5118 z M 733.26825,3479.7075 c -304.80728,-17.1584 -599.24035,-107.3997 -859.69769,-263.4901 -47.88199,-28.6954 -131.03807,-85.3821 -175.24119,-119.4601 -227.59649,-175.4637 -406.64095,-392.6739 -536.20493,-650.5042 l -27.43949,-54.6041 7.15715,-3.0291 c 14.85771,-6.2882 1724.30773,-619.8593 1795.8742,-644.5912 41.20708,-14.2403 141.2088,-49.432 222.2261,-78.2038 589.7539,-209.4401 1481.2256,-525.1468 1484.2964,-525.6501 2.7391,-0.4488 5.2895,5.7997 9.5979,23.5161 105.9409,435.6373 53.601,896.5963 -146.639,1291.4513 -148.5763,292.9796 -365.8178,536.5186 -641.2111,718.8317 -68.0532,45.0519 -114.997,72.3162 -187.9398,109.1521 -226.7664,114.5171 -466.2594,179.7703 -722.11964,196.7519 -44.12573,2.9286 -169.30787,2.8328 -222.65891,-0.1701 z M -1857.8722,1282.7032 c 0.6648,-1098.57474 0.8958,-1149.53889 5.2744,-1164.11012 11.6054,-38.6198 39.4062,-82.015282 65.3819,-102.057209 18.0884,-13.9563856 1530.89243,-888.517691 1545.5589,-893.497081 40.36234,-13.70338 76.80552,8.64445 86.94302,53.31548 1.58499,6.98425 39.51066,214.98791 84.279276,462.23036 44.768612,247.24245 83.190038,457.531868 85.380934,467.30982 4.966183,22.16415 8.682794,27.71167 11.675076,17.42659 1.162941,-3.99723 1.853188,-247.84335 1.533893,-541.88027 -0.544949,-501.86083 -0.308729,-535.62394 3.855865,-551.12082 10.980029,-40.85795 40.992621,-86.46875 70.604956,-107.29985 31.86888,-22.4186 659.91878,-383.3973 677.98767,-389.681 34.16086,-11.88 88.35991,-11.8334 123.43507,0.1062 17.28284,5.8831 651.47074,370.7941 677.20254,389.6616 25.1827,18.4647 52.0779,58.8995 65.4005,98.32401 l 6.0077,17.77809 1.2699,539.69204 c 0.9656,410.402555 1.9929,540.90888 4.2886,544.7715 2.8328,4.76684 3.2625,4.49882 6.9807,-4.35472 4.4062,-10.49116 2.811,-2.03582 104.3538,-553.11542 57.202,-310.43962 74.1075,-397.75499 79.0216,-408.14392 11.6508,-24.63012 34.2101,-37.69773 61.6859,-35.73185 9.2017,0.65837 20.7217,3.2062 25.5995,5.66178 4.8778,2.45562 349.9198,201.20294 766.7599,441.66071 818.3679,472.08242 776.6897,446.974295 800.7377,482.386424 12.9259,19.034367 22.7988,39.074516 30.288,61.478086 l 5.9427,17.77809 0.7962,194.60759 c 0.7581,185.29647 0.5778,194.69278 -3.7651,196.38845 -2.5085,0.97947 -1216.0111,430.41964 -2696.6721,954.31144 -1480.66102,523.8919 -2693.5495,953.0809 -2695.3076,953.7532 -2.5668,0.9819 -3.0597,-225.1504 -2.5014,-1147.6492 z"
         id="path2684" />
      <path
         style="fill:#5ea8f9;stroke-width:2.53973"
         d="m 800.57103,4692.8194 c -9.07953,-1.9106 -21.65118,-5.5214 -27.937,-8.0243 -6.28583,-2.5029 -166.86009,-94.3996 -356.83169,-204.2149 C -1791.1889,3204.8018 -1777.7102,3212.6326 -1795.6311,3195.7759 c -19.8173,-18.6403 -37.5965,-44.1008 -47.8001,-68.4515 -13.8875,-33.1427 -14.6387,-43.3783 -16.1531,-220.1108 l -1.3929,-162.5425 373.4273,-133.3357 c 205.385,-73.3346 374.4205,-133.6864 375.6345,-134.1149 1.214,-0.4287 7.6532,11.0001 14.3093,25.3973 68.4919,148.1469 165.25962,304.1628 269.06289,433.8027 94.19148,117.6356 221.29714,244.7413 338.93276,338.9327 313.42313,250.9596 695.00443,409.1422 1093.35261,453.2438 88.97579,9.8506 125.1509,11.6207 237.4645,11.6207 112.3136,0 148.48872,-1.7701 237.46454,-11.6207 398.3481,-44.1016 779.9294,-202.2842 1093.3526,-453.2438 117.6356,-94.1914 244.7413,-221.2971 338.9327,-338.9327 212.3705,-265.2291 359.9106,-582.2399 425.5255,-914.3018 16.9963,-86.0142 28.2887,-169.1276 36.0593,-265.4015 4.367,-54.1036 4.367,-248.124 0,-302.2276 -10.5666,-130.9138 -29.502,-249.8533 -57.5663,-361.5944 -6.4466,-25.6673 -11.3444,-47.7978 -10.884,-49.1788 0.4602,-1.3809 142.5102,-53.14494 315.6666,-115.03126 l 314.8299,-112.52056 2.1186,1130.09222 c 2.3124,1233.6042 3.1864,1145.8789 -11.7841,1182.9422 -10.3958,25.7376 -22.2348,43.3757 -43.6688,65.0597 l -20.3178,20.5547 -1271.0175,733.6343 c -983.9594,567.9437 -1275.34563,735.0405 -1290.18144,739.8599 -23.85719,7.75 -73.12409,9.9915 -99.16543,4.5118 z M 733.26825,3479.7075 c -304.80728,-17.1584 -599.24035,-107.3997 -859.69769,-263.4901 -47.88199,-28.6954 -131.03807,-85.3821 -175.24119,-119.4601 -227.59649,-175.4637 -406.64095,-392.6739 -536.20493,-650.5042 l -27.43949,-54.6041 7.15715,-3.0291 c 14.85771,-6.2882 1724.30773,-619.8593 1795.8742,-644.5912 41.20708,-14.2403 141.2088,-49.432 222.2261,-78.2038 589.7539,-209.4401 1481.2256,-525.1468 1484.2964,-525.6501 2.7391,-0.4488 5.2895,5.7997 9.5979,23.5161 105.9409,435.6373 53.601,896.5963 -146.639,1291.4513 -148.5763,292.9796 -365.8178,536.5186 -641.2111,718.8317 -68.0532,45.0519 -114.997,72.3162 -187.9398,109.1521 -226.7664,114.5171 -466.2594,179.7703 -722.11964,196.7519 -44.12573,2.9286 -169.30787,2.8328 -222.65891,-0.1701 z M -1857.3739,1282.7644 c 1.8446,-1123.04859 1.9937,-1148.67316 6.7818,-1165.95177 5.5754,-20.119462 16.3555,-42.60796 30.2294,-63.061882 23.4311,-34.543846 -16.7752,-10.304816 806.124,-485.984328 420.18651,-242.89009 769.26621,-443.2621 775.73274,-445.27108 22.17388,-6.88888 49.04744,-0.11987 64.17721,16.16536 14.32028,15.41384 16.85221,25.12565 40.44759,155.14684 12.61211,69.49831 50.913664,280.64898 85.114597,469.22373 34.200908,188.574746 63.289751,346.86325 64.641876,351.75222 1.3521,4.88898 3.601536,10.60336 4.998767,12.69864 2.258123,3.38629 2.81826,3.38629 5.041232,0 1.621134,-2.46953 2.514508,-193.222451 2.539727,-542.28282 0.03886,-536.55314 0.05765,-538.54096 5.29264,-557.47013 12.422593,-44.91838 45.212175,-90.00788 81.929011,-112.66208 39.22429,-24.2012 636.27278,-368.4472 650.60802,-375.1273 40.48935,-18.8678 106.49026,-19.8218 147.75041,-2.1357 6.4692,2.773 157.58928,89.2945 335.82258,192.2699 321.4548,185.7228 324.2254,187.3914 344.6003,207.5459 23.921,23.6624 38.036,46.3993 49.9003,80.38088 l 8.2912,23.74794 1.2699,539.69205 c 0.6984,296.83062 2.1946,541.12064 3.3245,542.8667 3.8213,5.90395 6.6231,3.22355 10.5884,-10.12917 2.173,-7.31711 42.2351,-221.32087 89.0268,-475.56393 46.792,-254.24305 86.9283,-467.40305 89.1917,-473.68887 6.1954,-17.20406 27.0654,-36.55793 43.7338,-40.5566 13.693,-3.28489 31.1546,-1.99222 43.2008,3.19812 15.8601,6.83357 1521.7045,877.0636 1534.2993,886.674182 25.7513,19.649692 49.4521,53.927527 62.7204,90.711238 l 6.7523,18.7201 2.4478,197.52909 c 1.3461,108.641 2.0008,197.96587 1.4548,198.49975 -0.5463,0.53385 -1211.3001,429.2102 -2690.56429,952.61412 -1479.26418,523.404 -2694.02271,953.2388 -2699.46341,955.1886 l -9.8922,3.5452 z"
         id="path2682" />
      <path
         style="fill:#fead00;stroke-width:2.53973"
         d="m 806.92034,4693.7139 c -6.98425,-1.3847 -19.60009,-4.7767 -28.03503,-7.5377 -22.36001,-7.3189 -2552.26321,-1470.5937 -2570.77461,-1486.9145 -34.1879,-30.142 -58.6186,-76.5967 -63.9232,-121.5488 -1.3406,-11.3605 -2.7673,-90.8326 -3.1705,-176.6045 l -0.733,-155.9492 374.5711,-133.9389 374.5711,-133.9388 29.4159,60.0427 c 151.90262,310.059 368.18783,571.941 642.5867,778.0553 303.60294,228.051 663.1372,371.122 1038.50377,413.2558 90.09759,10.1132 121.18106,11.6089 241.27409,11.6089 120.09304,0 151.17651,-1.4957 241.27414,-11.6089 655.1097,-73.5342 1242.5763,-450.8498 1588.0714,-1019.9796 126.4446,-208.2906 218.7871,-445.7874 265.9488,-683.9973 16.8493,-85.104 28.0076,-166.1032 36.0364,-261.5919 4.4641,-53.091 4.4641,-261.8352 0,-314.9262 -10.9297,-129.9883 -29.7851,-247.1871 -57.5624,-357.7843 -6.4463,-25.6673 -11.2573,-47.1314 -10.6907,-47.698 1.0735,-1.0735 630.0464,-226.38584 630.643,-225.91065 0.1879,0.14882 0.7058,511.70835 1.1528,1136.79865 0.6646,929.4208 0.2082,1138.8419 -2.5062,1149.2266 -5.2679,20.1548 -26.6842,62.1225 -40.0622,78.5058 -6.7422,8.2569 -17.4014,19.3248 -23.6873,24.5952 -9.7899,8.2087 -2484.55297,1439.1151 -2540.99714,1469.203 -11.1748,5.9567 -27.17509,12.6776 -35.55619,14.9349 -18.53899,4.9936 -68.93886,7.1547 -86.35073,3.7024 z M 759.93539,3480.8087 C 344.13906,3460.56 -33.533558,3316.9029 -348.65558,3059.1284 c -90.98297,-74.4254 -195.51809,-179.672 -269.44841,-271.282 -56.20493,-69.6459 -117.67126,-158.7593 -162.04019,-234.9247 -34.15898,-58.6388 -84.72663,-159.1193 -81.53632,-162.0169 3.12973,-2.8424 1715.51215,-617.9905 1801.93653,-647.3188 34.22282,-11.6136 66.22337,-22.8001 71.11237,-24.8591 4.889,-2.0587 220.8928,-78.8159 480.0085,-170.5714 259.1156,-91.7552 624.8364,-221.3494 812.7127,-287.987 224.5566,-79.6474 342.1416,-120.1939 343.1939,-118.3422 5.7722,10.1584 31.421,134.3663 40.1774,194.566 14.8102,101.8182 19.035,163.4358 18.8946,275.5604 -0.1245,100.1087 -3.1831,152.4611 -13.7206,234.9248 -51.9458,406.5161 -228.7759,773.7835 -514.9008,1069.4243 -321.7956,332.4978 -759.9781,534.0604 -1224.77943,563.3948 -36.39887,2.2972 -154.68972,2.9788 -193.01928,1.1121 z M -1857.3739,1282.7644 c 1.8446,-1123.04859 1.9937,-1148.67316 6.7818,-1165.95177 5.5754,-20.119462 16.3555,-42.60796 30.2294,-63.061882 23.4311,-34.543846 -16.7752,-10.304816 806.124,-485.984328 420.18651,-242.89009 769.26621,-443.2621 775.73274,-445.27108 22.17388,-6.88888 49.04744,-0.11987 64.17721,16.16536 14.32028,15.41384 16.85221,25.12565 40.44759,155.14684 12.61211,69.49831 50.913664,280.64898 85.114597,469.22373 34.200908,188.574746 63.289751,346.86325 64.641876,351.75222 1.3521,4.88898 3.601536,10.60336 4.998767,12.69864 2.258123,3.38629 2.81826,3.38629 5.041232,0 1.621134,-2.46953 2.514508,-193.222451 2.539727,-542.28282 0.03886,-536.55314 0.05765,-538.54096 5.29264,-557.47013 12.422593,-44.91838 45.212175,-90.00788 81.929011,-112.66208 39.22429,-24.2012 636.27278,-368.4472 650.60802,-375.1273 40.48935,-18.8678 106.49026,-19.8218 147.75041,-2.1357 6.4692,2.773 157.58928,89.2945 335.82258,192.2699 321.4548,185.7228 324.2254,187.3914 344.6003,207.5459 23.921,23.6624 38.036,46.3993 49.9003,80.38088 l 8.2912,23.74794 1.2699,539.69205 c 0.6984,296.83062 2.1946,541.12064 3.3245,542.8667 3.8213,5.90395 6.6231,3.22355 10.5884,-10.12917 2.173,-7.31711 42.2351,-221.32087 89.0268,-475.56393 46.792,-254.24305 86.9283,-467.40305 89.1917,-473.68887 6.1954,-17.20406 27.0654,-36.55793 43.7338,-40.5566 13.693,-3.28489 31.1546,-1.99222 43.2008,3.19812 15.8601,6.83357 1521.7045,877.0636 1534.2993,886.674182 25.7513,19.649692 49.4521,53.927527 62.7204,90.711238 l 6.7523,18.7201 2.4478,197.52909 c 1.3461,108.641 2.0008,197.96587 1.4548,198.49975 -0.5463,0.53385 -1211.3001,429.2102 -2690.56429,952.61412 -1479.26418,523.404 -2694.02271,953.2388 -2699.46341,955.1886 l -9.8922,3.5452 z"
         id="path2680" />
      <path
         style="fill:#4a75eb;stroke-width:2.53973"
         d="m 806.92034,4693.7139 c -6.98425,-1.3847 -19.60009,-4.7767 -28.03503,-7.5377 -22.36001,-7.3189 -2552.26321,-1470.5937 -2570.77461,-1486.9145 -34.1879,-30.142 -58.6186,-76.5967 -63.9232,-121.5488 -1.3406,-11.3605 -2.7673,-90.8326 -3.1705,-176.6045 l -0.733,-155.9492 374.5711,-133.9389 374.5711,-133.9388 29.4159,60.0427 c 151.90262,310.059 368.18783,571.941 642.5867,778.0553 303.60294,228.051 663.1372,371.122 1038.50377,413.2558 90.09759,10.1132 121.18106,11.6089 241.27409,11.6089 120.09304,0 151.17651,-1.4957 241.27414,-11.6089 655.1097,-73.5342 1242.5763,-450.8498 1588.0714,-1019.9796 126.4446,-208.2906 218.7871,-445.7874 265.9488,-683.9973 16.8493,-85.104 28.0076,-166.1032 36.0364,-261.5919 4.4641,-53.091 4.4641,-261.8352 0,-314.9262 -10.9297,-129.9883 -29.7851,-247.1871 -57.5624,-357.7843 -6.4463,-25.6673 -11.2573,-47.1314 -10.6907,-47.698 1.0735,-1.0735 630.0464,-226.38584 630.643,-225.91065 0.1879,0.14882 0.7058,511.70835 1.1528,1136.79865 0.6646,929.4208 0.2082,1138.8419 -2.5062,1149.2266 -5.2679,20.1548 -26.6842,62.1225 -40.0622,78.5058 -6.7422,8.2569 -17.4014,19.3248 -23.6873,24.5952 -9.7899,8.2087 -2484.55297,1439.1151 -2540.99714,1469.203 -11.1748,5.9567 -27.17509,12.6776 -35.55619,14.9349 -18.53899,4.9936 -68.93886,7.1547 -86.35073,3.7024 z M 759.93539,3480.8087 C 344.13906,3460.56 -33.533558,3316.9029 -348.65558,3059.1284 c -90.98297,-74.4254 -195.51809,-179.672 -269.44841,-271.282 -56.20493,-69.6459 -117.67126,-158.7593 -162.04019,-234.9247 -34.15898,-58.6388 -84.72663,-159.1193 -81.53632,-162.0169 3.12973,-2.8424 1715.51215,-617.9905 1801.93653,-647.3188 34.22282,-11.6136 66.22337,-22.8001 71.11237,-24.8591 4.889,-2.0587 220.8928,-78.8159 480.0085,-170.5714 259.1156,-91.7552 624.8364,-221.3494 812.7127,-287.987 224.5566,-79.6474 342.1416,-120.1939 343.1939,-118.3422 5.7722,10.1584 31.421,134.3663 40.1774,194.566 14.8102,101.8182 19.035,163.4358 18.8946,275.5604 -0.1245,100.1087 -3.1831,152.4611 -13.7206,234.9248 -51.9458,406.5161 -228.7759,773.7835 -514.9008,1069.4243 -321.7956,332.4978 -759.9781,534.0604 -1224.77943,563.3948 -36.39887,2.2972 -154.68972,2.9788 -193.01928,1.1121 z"
         id="path2678" />
      <path
         style="fill:#3468f6;stroke-width:2.53973"
         d="m 806.92034,4693.7139 c -6.98425,-1.3847 -19.60009,-4.7767 -28.03503,-7.5377 -22.36001,-7.3189 -2552.26321,-1470.5937 -2570.77461,-1486.9145 -34.1879,-30.142 -58.6186,-76.5967 -63.9232,-121.5488 -1.3406,-11.3605 -2.7673,-90.8326 -3.1705,-176.6045 l -0.733,-155.9492 374.5711,-133.9389 374.5711,-133.9388 29.4159,60.0427 c 151.90262,310.059 368.18783,571.941 642.5867,778.0553 303.60294,228.051 663.1372,371.122 1038.50377,413.2558 90.09759,10.1132 121.18106,11.6089 241.27409,11.6089 120.09304,0 151.17651,-1.4957 241.27414,-11.6089 655.1097,-73.5342 1242.5763,-450.8498 1588.0714,-1019.9796 126.4446,-208.2906 218.7871,-445.7874 265.9488,-683.9973 16.8493,-85.104 28.0076,-166.1032 36.0364,-261.5919 4.4641,-53.091 4.4641,-261.8352 0,-314.9262 -10.9297,-129.9883 -29.7851,-247.1871 -57.5624,-357.7843 -6.4463,-25.6673 -11.2573,-47.1314 -10.6907,-47.698 1.0735,-1.0735 630.0464,-226.38584 630.643,-225.91065 0.1879,0.14882 0.7058,511.70835 1.1528,1136.79865 0.6646,929.4208 0.2082,1138.8419 -2.5062,1149.2266 -5.2679,20.1548 -26.6842,62.1225 -40.0622,78.5058 -6.7422,8.2569 -17.4014,19.3248 -23.6873,24.5952 -9.7899,8.2087 -2484.55297,1439.1151 -2540.99714,1469.203 -11.1748,5.9567 -27.17509,12.6776 -35.55619,14.9349 -18.53899,4.9936 -68.93886,7.1547 -86.35073,3.7024 z M 772.63403,3480.905 c -156.55034,-7.1204 -293.52459,-28.0328 -432.15457,-65.9791 -492.16108,-134.716 -908.15544,-466.7099 -1152.39847,-919.6985 -24.26486,-45.0032 -51.86352,-102.323 -50.11091,-104.0757 1.70886,-1.7087 1738.2099,-625.4985 1790.85718,-643.3155 23.74645,-8.0364 419.11294,-147.9388 878.59204,-310.8943 459.479,-162.9555 836.6875,-295.7949 838.2408,-295.1989 3.0824,1.1828 20.1047,73.6854 30.3586,129.3062 40.833,221.4914 41.2066,450.5339 1.0987,673.6078 -64.0179,356.056 -223.6769,674.1975 -473.9878,944.4816 -155.6424,168.0619 -362.8653,319.1206 -571.5771,416.6606 -202.4647,94.6206 -405.9055,149.3657 -632.88274,170.306 -39.48514,3.6427 -184.00223,6.7114 -226.03573,4.7998 z"
         id="path2676" />
      <path
         style="fill:#0090fe;stroke-width:2.53973"
         d="m 806.92034,4693.7139 c -6.98425,-1.3847 -19.60009,-4.7767 -28.03503,-7.5377 -22.36001,-7.3189 -2552.26321,-1470.5937 -2570.77461,-1486.9145 -34.1879,-30.142 -58.6186,-76.5967 -63.9232,-121.5488 -1.3406,-11.3605 -2.7673,-90.8326 -3.1705,-176.6045 l -0.733,-155.9492 374.5711,-133.9389 374.5711,-133.9388 29.4159,60.0427 c 151.90262,310.059 368.18783,571.941 642.5867,778.0553 303.60294,228.051 663.1372,371.122 1038.50377,413.2558 90.09759,10.1132 121.18106,11.6089 241.27409,11.6089 120.09304,0 151.17651,-1.4957 241.27414,-11.6089 655.1097,-73.5342 1242.5763,-450.8498 1588.0714,-1019.9796 126.4446,-208.2906 218.7871,-445.7874 265.9488,-683.9973 16.8493,-85.104 28.0076,-166.1032 36.0364,-261.5919 4.4641,-53.091 4.4641,-261.8352 0,-314.9262 -10.9297,-129.9883 -29.7851,-247.1871 -57.5624,-357.7843 -6.4463,-25.6673 -11.2573,-47.1314 -10.6907,-47.698 1.0735,-1.0735 630.0464,-226.38584 630.643,-225.91065 0.1879,0.14882 0.7058,511.70835 1.1528,1136.79865 0.6646,929.4208 0.2082,1138.8419 -2.5062,1149.2266 -5.2679,20.1548 -26.6842,62.1225 -40.0622,78.5058 -6.7422,8.2569 -17.4014,19.3248 -23.6873,24.5952 -9.7899,8.2087 -2484.55297,1439.1151 -2540.99714,1469.203 -11.1748,5.9567 -27.17509,12.6776 -35.55619,14.9349 -18.53899,4.9936 -68.93886,7.1547 -86.35073,3.7024 z M 909.76432,3466.5885 c 0,-7.3334 -6.28938,-392.7688 -13.95834,-856.523 -7.66897,-463.7542 -13.94793,-843.9516 -13.95352,-844.8829 0,-0.9316 26.56174,-10.499 59.0385,-21.2611 32.47676,-10.7623 62.47734,-21.0881 66.66784,-22.9464 4.1906,-1.8583 374.3027,-133.3327 822.4716,-292.1652 629.091,-222.9517 815.3241,-288.0228 816.9214,-285.4384 4.3729,7.0752 24.6181,99.9987 34.0303,156.1948 63.2613,377.7069 9.5885,767.664 -153.2091,1113.1299 -33.4291,70.9389 -87.5842,166.2526 -133.0644,234.1954 -303.1784,452.9187 -781.7113,750.8797 -1317.3073,820.2288 -50.374,6.5225 -122.6386,12.7687 -147.93911,12.7872 l -19.68289,0.025 -0.0254,-13.3335 z"
         id="path2674" />
      <path
         style="fill:#1751f0;stroke-width:2.53973"
         d="m 909.76432,3466.5885 c 0,-7.3334 -6.28938,-392.7688 -13.95834,-856.523 -7.66897,-463.7542 -13.94793,-843.9516 -13.95352,-844.8829 0,-0.9316 26.56174,-10.499 59.0385,-21.2611 32.47676,-10.7623 62.47734,-21.0881 66.66784,-22.9464 4.1906,-1.8583 374.3027,-133.3327 822.4716,-292.1652 629.091,-222.9517 815.3241,-288.0228 816.9214,-285.4384 4.3729,7.0752 24.6181,99.9987 34.0303,156.1948 63.2613,377.7069 9.5885,767.664 -153.2091,1113.1299 -33.4291,70.9389 -87.5842,166.2526 -133.0644,234.1954 -303.1784,452.9187 -781.7113,750.8797 -1317.3073,820.2288 -50.374,6.5225 -122.6386,12.7687 -147.93911,12.7872 l -19.68289,0.025 -0.0254,-13.3335 z"
         id="path2672" />
      <path
         style="fill:#0a3cc6;stroke-width:2.53973"
         d="m 1740.6757,2125.0792 c -397.1808,-221.1503 -723.1947,-403.139 -724.4752,-404.4196 -1.4113,-1.4113 318.83,-116.1826 813.0523,-291.3905 448.4594,-158.9841 815.9984,-288.4442 816.7534,-287.6891 2.4658,2.4658 13.3727,47.7616 23.6705,98.3027 68.5653,336.5166 41.1675,694.9661 -77.8429,1018.4306 -10.5358,28.6354 -26.6341,69.779 -35.774,91.4302 -22.7105,53.7972 -84.6448,176.3439 -89.4277,176.9468 -2.0952,0.2642 -328.7755,-180.461 -725.9564,-401.6111 z"
         id="path2670" />
    </g>
  </g>
</svg>
