<?xml version="1.0" encoding="UTF-8" standalone="no"?><!-- Generator: Gravit.io --><svg xmlns="http://www.w3.org/2000/svg" xmlns:xlink="http://www.w3.org/1999/xlink" style="isolation:isolate" viewBox="0 0 155.906 155.906" width="155.906pt" height="155.906pt"><defs><clipPath id="_clipPath_vfg9CqFAnCZpmGGhLdscBgmNsMTh1pFV"><rect width="155.906" height="155.906"/></clipPath></defs><g clip-path="url(#_clipPath_vfg9CqFAnCZpmGGhLdscBgmNsMTh1pFV)"><g style="isolation:isolate"/><g><path d=" M 143.752 58.618 C 143.027 58.872 142.267 59.136 142.064 59.204 C 141.861 59.273 141.6 59.368 141.484 59.415 C 141.368 59.463 140.656 59.723 139.901 59.994 C 139.146 60.265 138.147 60.626 137.68 60.796 C 137.213 60.966 136.792 61.106 136.746 61.106 C 136.7 61.106 136.512 61.171 136.329 61.251 C 136.146 61.332 135.593 61.539 135.1 61.713 C 134.606 61.888 133.797 62.178 133.301 62.359 C 132.804 62.54 132.36 62.688 132.314 62.688 C 132.268 62.688 132.08 62.754 131.897 62.834 C 131.533 62.994 129.916 63.578 129.526 63.692 C 129.352 63.742 129.3 63.814 129.348 63.938 C 129.566 64.504 130.217 67.498 130.511 69.284 C 131.512 75.377 131.409 82.092 130.225 87.961 C 130.108 88.542 129.966 89.254 129.911 89.544 C 129.855 89.834 129.74 90.333 129.654 90.652 C 129.569 90.971 129.456 91.399 129.402 91.602 C 129.081 92.818 128.377 95.08 128.139 95.665 C 128.091 95.781 127.969 96.113 127.869 96.403 C 127.769 96.694 127.626 97.074 127.551 97.248 C 127.477 97.422 127.165 98.158 126.858 98.883 C 126.354 100.074 125.061 102.707 124.448 103.79 C 123.666 105.171 122.06 107.707 121.499 108.447 C 121.406 108.571 121.258 108.777 121.171 108.906 C 121.083 109.034 120.929 109.236 120.828 109.356 C 120.726 109.476 120.642 109.602 120.642 109.636 C 120.64 109.671 120.498 109.866 120.326 110.069 C 120.153 110.271 119.976 110.486 119.932 110.544 C 119.815 110.7 119.043 111.662 118.797 111.959 C 117.205 113.878 114.349 116.768 112.632 118.194 C 112.317 118.455 111.979 118.746 111.88 118.841 C 111.78 118.935 111.386 119.252 111.005 119.545 C 110.622 119.838 110.249 120.13 110.174 120.195 C 110.043 120.308 108.449 121.459 107.976 121.782 C 107.848 121.869 107.572 122.061 107.361 122.21 C 107.048 122.43 104.083 124.21 103.285 124.657 C 102.857 124.896 99.996 126.304 99.486 126.527 C 99.195 126.653 98.815 126.819 98.641 126.894 C 98.467 126.969 98.087 127.119 97.797 127.225 C 97.507 127.332 97.151 127.48 97.006 127.554 C 96.861 127.629 96.668 127.69 96.578 127.69 C 96.489 127.691 96.369 127.732 96.314 127.782 C 96.19 127.895 93.85 128.667 92.363 129.085 C 90.163 129.704 88.058 130.149 85.715 130.492 C 84.781 130.628 84.147 130.696 81.283 130.964 C 79.857 131.098 76.167 131.098 74.74 130.964 C 71.876 130.696 71.243 130.628 70.308 130.492 C 67.857 130.134 65.708 129.668 63.08 128.924 C 62.063 128.636 59.808 127.872 59.709 127.782 C 59.654 127.732 59.535 127.691 59.445 127.69 C 59.355 127.69 59.162 127.629 59.017 127.554 C 58.872 127.48 58.516 127.331 58.226 127.225 C 57.936 127.118 57.398 126.894 57.031 126.728 C 56.665 126.561 56.34 126.425 56.311 126.425 C 56.238 126.425 53.096 124.852 52.369 124.452 C 48.754 122.46 44.938 119.694 41.977 116.919 C 41.57 116.538 41.154 116.158 41.053 116.075 C 40.805 115.873 38.416 113.327 37.739 112.544 C 34.857 109.207 32.409 105.52 30.388 101.468 C 29.867 100.424 29.426 99.552 29.409 99.531 C 29.381 99.498 28.726 99.711 28.152 99.939 C 28.036 99.985 27.632 100.127 27.255 100.255 C 26.877 100.382 26.474 100.528 26.358 100.578 C 26.242 100.629 25.791 100.795 25.355 100.947 C 24.92 101.098 24.231 101.339 23.826 101.482 C 23.419 101.623 22.992 101.78 22.876 101.831 C 22.759 101.882 22.356 102.027 21.979 102.155 C 21.601 102.282 21.198 102.424 21.082 102.47 C 20.966 102.517 20.443 102.705 19.921 102.889 C 19.399 103.073 18.591 103.36 18.127 103.527 C 17.663 103.694 16.681 104.047 15.945 104.312 C 15.209 104.576 14.575 104.792 14.536 104.792 C 14.498 104.792 14.316 104.858 14.134 104.938 C 13.951 105.019 13.492 105.19 13.115 105.318 C 12.737 105.447 12.334 105.591 12.218 105.639 C 12.102 105.686 11.68 105.836 11.281 105.971 L 10.556 106.217 L 10.616 110.438 C 10.689 115.468 10.797 116.032 11.921 117.254 C 12.29 117.654 13.43 118.51 13.595 118.51 C 13.633 118.51 14.177 118.819 14.803 119.196 C 15.43 119.573 15.994 119.882 16.058 119.882 C 16.122 119.882 16.175 119.93 16.175 119.988 C 16.175 120.046 16.22 120.093 16.276 120.093 C 16.332 120.093 17.009 120.465 17.78 120.92 C 18.552 121.374 19.277 121.798 19.394 121.862 C 19.509 121.926 20.134 122.29 20.78 122.671 C 21.427 123.053 21.979 123.365 22.007 123.365 C 22.034 123.365 22.612 123.697 23.291 124.103 C 23.969 124.509 24.546 124.842 24.573 124.842 C 24.599 124.842 24.798 124.953 25.015 125.089 C 25.684 125.509 27.975 126.847 28.025 126.847 C 28.051 126.847 28.496 127.101 29.013 127.411 C 29.531 127.722 30.178 128.102 30.451 128.256 C 30.724 128.41 31.173 128.662 31.447 128.815 C 31.721 128.97 32.363 129.35 32.875 129.66 C 33.387 129.97 33.832 130.224 33.865 130.224 C 33.898 130.224 34.438 130.532 35.064 130.909 C 35.69 131.287 36.255 131.596 36.319 131.596 C 36.383 131.596 36.435 131.643 36.435 131.701 C 36.435 131.759 36.481 131.806 36.537 131.806 C 36.592 131.806 37.269 132.178 38.04 132.633 C 38.812 133.087 39.538 133.511 39.654 133.575 C 39.77 133.639 40.394 134.003 41.041 134.385 C 41.688 134.766 42.24 135.078 42.267 135.078 C 42.295 135.078 42.741 135.332 43.259 135.642 C 43.776 135.953 44.412 136.326 44.67 136.471 C 44.929 136.617 45.331 136.843 45.563 136.973 C 45.796 137.104 46.491 137.514 47.109 137.885 C 47.726 138.256 48.256 138.56 48.286 138.56 C 48.315 138.56 49.056 138.987 49.931 139.51 C 50.806 140.032 51.544 140.46 51.571 140.46 C 51.598 140.46 52.211 140.815 52.933 141.251 C 53.655 141.686 54.273 142.042 54.306 142.042 C 54.34 142.042 54.786 142.296 55.296 142.606 C 55.808 142.916 56.451 143.296 56.725 143.45 C 56.999 143.604 57.447 143.856 57.721 144.01 C 57.994 144.164 58.641 144.544 59.159 144.854 C 59.677 145.165 60.122 145.419 60.15 145.419 C 60.179 145.419 60.792 145.775 61.515 146.21 C 62.236 146.646 62.847 147.002 62.871 147.002 C 62.894 147.002 63.558 147.382 64.347 147.846 C 65.134 148.31 65.825 148.69 65.881 148.69 C 65.936 148.69 65.982 148.738 65.982 148.795 C 65.982 148.854 66.035 148.901 66.098 148.901 C 66.163 148.901 66.744 149.213 67.391 149.594 C 68.038 149.975 68.662 150.34 68.779 150.404 C 69.094 150.577 71.876 152.2 73.281 153.029 C 73.959 153.428 74.539 153.755 74.572 153.755 C 74.605 153.755 74.929 153.936 75.292 154.156 C 76.366 154.807 76.874 154.956 78.012 154.953 C 79.389 154.949 79.649 154.848 82.444 153.212 C 82.995 152.889 84.075 152.262 84.844 151.818 C 85.613 151.375 86.848 150.663 87.588 150.236 C 88.328 149.808 89.635 149.049 90.491 148.547 C 91.349 148.045 92.07 147.635 92.096 147.635 C 92.121 147.635 92.693 147.302 93.365 146.896 C 94.038 146.49 94.608 146.158 94.633 146.158 C 94.657 146.158 95.26 145.817 95.973 145.402 C 96.686 144.986 98.006 144.22 98.905 143.699 C 99.805 143.178 100.968 142.502 101.49 142.197 C 102.013 141.893 102.677 141.513 102.968 141.353 C 103.478 141.073 104.675 140.378 107.259 138.861 C 107.937 138.463 108.542 138.138 108.605 138.138 C 108.668 138.138 108.719 138.09 108.719 138.032 C 108.719 137.974 108.77 137.927 108.833 137.927 C 108.896 137.927 109.501 137.602 110.178 137.204 C 112.763 135.687 113.96 134.991 114.47 134.711 C 114.76 134.552 115.425 134.172 115.947 133.868 C 116.47 133.563 117.514 132.958 118.269 132.523 C 119.023 132.087 120.342 131.321 121.199 130.819 C 122.056 130.317 122.778 129.907 122.803 129.907 C 122.828 129.907 123.4 129.575 124.073 129.168 C 124.745 128.762 125.315 128.43 125.34 128.43 C 125.365 128.43 125.968 128.089 126.68 127.674 C 127.393 127.258 128.713 126.492 129.612 125.971 C 130.512 125.45 131.675 124.774 132.198 124.47 C 132.72 124.165 133.385 123.785 133.675 123.626 C 134.185 123.345 135.382 122.65 137.967 121.133 C 138.644 120.735 139.25 120.41 139.312 120.41 C 139.375 120.41 139.426 120.362 139.426 120.304 C 139.426 120.247 139.477 120.199 139.54 120.199 C 139.603 120.199 140.208 119.873 140.886 119.475 C 141.563 119.077 142.458 118.555 142.874 118.315 C 144.007 117.66 144.863 116.52 145.221 115.186 C 145.442 114.362 145.356 58.144 145.134 58.154 C 145.1 58.155 144.478 58.364 143.752 58.618 Z  M 81.783 80.848 C 81.681 80.907 81.551 80.927 81.493 80.891 C 81.436 80.855 81.388 80.871 81.388 80.925 C 81.388 80.98 81.282 81.051 81.151 81.082 C 80.55 81.225 79.627 81.488 79.436 81.571 C 79.32 81.621 78.726 81.838 78.117 82.052 C 77.508 82.267 76.914 82.48 76.798 82.527 C 76.682 82.573 76.089 82.787 75.479 83.002 C 74.869 83.217 74.276 83.43 74.16 83.476 C 74.044 83.523 73.545 83.702 73.052 83.875 C 70.963 84.609 69.919 84.988 69.607 85.124 C 69.424 85.205 69.236 85.271 69.19 85.271 C 69.081 85.271 67.356 85.893 67.118 86.018 C 67.017 86.072 66.882 86.115 66.817 86.115 C 66.752 86.115 66.55 86.18 66.368 86.26 C 66.185 86.341 65.631 86.548 65.138 86.722 C 63.229 87.395 62.327 87.717 61.972 87.853 C 61.769 87.931 61.104 88.171 60.495 88.386 C 59.885 88.602 58.793 88.992 58.068 89.253 C 57.342 89.515 56.345 89.869 55.852 90.041 C 55.358 90.214 54.872 90.397 54.772 90.45 C 54.671 90.504 54.535 90.547 54.471 90.547 C 54.406 90.547 54.204 90.612 54.021 90.692 C 53.838 90.773 53.285 90.98 52.792 91.155 C 50.542 91.949 49.663 92.262 49.468 92.341 C 49.351 92.387 48.758 92.601 48.148 92.816 C 47.539 93.03 46.945 93.244 46.829 93.291 C 46.714 93.337 46.12 93.551 45.511 93.767 C 44.901 93.983 43.902 94.344 43.29 94.569 C 42.678 94.794 42.139 94.979 42.092 94.979 C 42.045 94.979 41.857 95.044 41.675 95.124 C 41.492 95.205 40.939 95.412 40.446 95.587 C 38.114 96.409 37.316 96.695 37.122 96.775 C 37.005 96.822 36.59 96.972 36.198 97.107 C 35.741 97.264 35.486 97.408 35.486 97.51 C 35.486 97.654 36.766 100.264 36.961 100.519 C 37.006 100.577 37.223 100.957 37.444 101.363 C 38.25 102.842 41.174 107.08 41.703 107.536 C 41.736 107.565 41.954 107.826 42.187 108.114 C 43.484 109.73 46.032 112.253 48.315 114.18 C 48.485 114.324 49.217 114.881 49.943 115.419 C 50.668 115.958 51.309 116.434 51.367 116.478 C 52.594 117.409 57.121 119.964 58.653 120.59 C 58.978 120.723 59.792 121.068 60.336 121.303 C 60.814 121.508 62.938 122.282 63.239 122.36 C 63.384 122.397 63.597 122.469 63.713 122.519 C 63.9 122.601 64.761 122.854 65.876 123.157 C 66.079 123.212 66.673 123.353 67.196 123.471 C 67.718 123.588 68.335 123.729 68.567 123.785 C 68.965 123.879 70.75 124.164 72.524 124.416 C 74.631 124.715 82.021 124.751 82.977 124.467 C 83.068 124.44 83.661 124.35 84.296 124.267 C 86.013 124.041 87.583 123.743 89.25 123.325 C 90.332 123.054 90.61 122.98 90.991 122.856 C 91.194 122.791 91.692 122.635 92.099 122.51 C 92.99 122.235 94.978 121.519 95.634 121.236 C 95.895 121.123 96.204 120.99 96.32 120.94 C 96.851 120.711 98.265 120.055 98.694 119.839 C 100.464 118.951 103.404 117.247 103.173 117.242 C 103.041 117.24 104.044 116.611 104.181 116.611 C 104.239 116.611 104.287 116.564 104.287 116.505 C 104.287 116.448 104.358 116.4 104.445 116.4 C 104.532 116.4 104.603 116.35 104.603 116.288 C 104.603 116.227 104.647 116.203 104.699 116.236 C 104.752 116.269 104.909 116.164 105.048 116.004 C 105.187 115.845 105.368 115.699 105.452 115.679 C 105.535 115.66 105.628 115.607 105.658 115.561 C 105.687 115.516 106.044 115.23 106.45 114.928 C 106.856 114.624 107.237 114.321 107.296 114.254 C 107.354 114.186 107.615 113.968 107.876 113.768 C 108.136 113.568 108.587 113.176 108.877 112.898 C 111.117 110.746 112.295 109.56 113.048 108.697 C 113.528 108.145 113.951 107.67 113.985 107.641 C 114.02 107.612 114.284 107.28 114.573 106.903 C 114.862 106.526 115.134 106.201 115.179 106.182 C 115.224 106.162 115.261 106.078 115.261 105.994 C 115.261 105.91 115.331 105.814 115.416 105.782 C 115.5 105.75 115.596 105.641 115.628 105.54 C 115.66 105.439 115.792 105.243 115.922 105.104 C 116.052 104.964 116.159 104.825 116.16 104.795 C 116.165 104.673 116.579 104.054 116.656 104.054 C 116.702 104.054 116.739 103.99 116.739 103.912 C 116.739 103.834 116.822 103.672 116.923 103.551 C 117.025 103.431 117.191 103.233 117.293 103.112 C 117.394 102.99 117.477 102.82 117.477 102.733 C 117.477 102.647 117.514 102.576 117.558 102.576 C 117.602 102.576 117.685 102.484 117.742 102.37 C 117.8 102.258 117.962 101.937 118.103 101.658 C 118.244 101.38 118.423 101.113 118.502 101.066 C 118.603 101.004 118.509 100.908 118.166 100.723 C 116.715 99.942 115.319 99.172 115.209 99.092 C 115.15 99.05 114.794 98.85 114.417 98.647 C 113.46 98.132 112.731 97.729 112.359 97.508 C 112.185 97.404 111.829 97.205 111.568 97.064 C 111.307 96.924 110.642 96.556 110.091 96.245 C 109.539 95.935 108.875 95.566 108.613 95.426 C 108.352 95.286 107.996 95.086 107.822 94.982 C 107.45 94.761 106.721 94.357 105.764 93.843 C 105.387 93.641 105.031 93.44 104.973 93.398 C 104.869 93.322 104.254 92.982 102.915 92.261 C 102.538 92.058 102.182 91.857 102.123 91.815 C 102.02 91.739 101.405 91.399 100.066 90.678 C 99.688 90.475 99.333 90.274 99.274 90.232 C 99.171 90.156 98.556 89.817 97.217 89.095 C 96.839 88.892 96.483 88.691 96.425 88.649 C 96.321 88.573 95.707 88.234 94.368 87.513 C 93.99 87.309 93.634 87.107 93.576 87.062 C 93.482 86.99 92.76 86.593 91.73 86.047 C 91.527 85.939 91.337 85.827 91.308 85.798 C 91.257 85.748 90.683 85.43 89.989 85.067 C 89.815 84.976 89.648 84.877 89.619 84.848 C 89.59 84.819 89.329 84.677 89.039 84.532 C 88.748 84.387 88.488 84.244 88.458 84.215 C 88.408 84.165 87.834 83.847 87.14 83.484 C 86.965 83.393 86.799 83.295 86.77 83.265 C 86.741 83.236 86.551 83.125 86.348 83.017 C 85.514 82.574 84.6 82.069 84.501 81.997 C 84.443 81.955 84.087 81.755 83.71 81.552 C 83.333 81.35 82.844 81.082 82.625 80.958 C 82.18 80.707 82.053 80.69 81.783 80.848 Z " fill-rule="evenodd" fill="rgb(255,255,255)"/><path d=" M 77.168 1.024 C 76.566 1.14 76.124 1.325 75.396 1.762 C 74.973 2.016 74.6 2.224 74.567 2.224 C 74.534 2.224 73.915 2.58 73.193 3.015 C 72.471 3.451 71.861 3.806 71.838 3.806 C 71.814 3.806 71.093 4.216 70.234 4.716 C 67.159 6.507 66.009 7.175 64.241 8.192 C 63.254 8.761 61.948 9.519 61.339 9.878 C 60.729 10.237 60.089 10.603 59.915 10.693 C 59.19 11.065 58.321 12.171 57.902 13.251 C 57.704 13.763 57.699 14.18 57.699 27.25 C 57.699 34.66 57.665 40.755 57.625 40.796 C 57.542 40.878 57.515 40.772 57.284 39.474 C 57.133 38.627 56.863 37.141 56.537 35.358 C 56.457 34.923 56.317 34.14 56.226 33.617 C 56.134 33.095 56.012 32.43 55.953 32.139 C 55.826 31.508 55.369 28.991 55.167 27.813 C 55.087 27.349 54.946 26.565 54.854 26.072 C 54.761 25.579 54.619 24.795 54.537 24.331 C 54.456 23.867 54.313 23.083 54.221 22.59 C 54.03 21.573 53.786 20.201 53.629 19.266 C 52.989 15.452 52.337 15.064 49.415 16.754 C 47.535 17.841 46.926 18.198 46.317 18.571 C 45.93 18.808 45.591 19.002 45.564 19.002 C 45.539 19.002 45.124 19.234 44.643 19.517 C 43.819 20.003 43.537 20.165 42.582 20.702 C 42.365 20.824 41.681 21.227 41.063 21.598 C 40.446 21.969 39.914 22.273 39.881 22.273 C 39.848 22.273 39.35 22.558 38.774 22.906 C 38.197 23.255 37.673 23.539 37.608 23.539 C 37.544 23.539 37.491 23.581 37.491 23.633 C 37.491 23.684 37.408 23.752 37.306 23.785 C 37.204 23.817 37.003 23.916 36.858 24.005 C 35.928 24.578 34.095 25.65 34.045 25.65 C 34.012 25.65 33.394 26.006 32.672 26.441 C 31.95 26.877 31.338 27.233 31.313 27.233 C 31.288 27.233 30.788 27.518 30.201 27.866 C 29.614 28.214 29.112 28.499 29.084 28.499 C 29.057 28.499 28.827 28.641 28.574 28.815 C 28.321 28.99 28.083 29.132 28.045 29.132 C 28.008 29.132 27.423 29.458 26.746 29.856 C 23.708 31.641 22.309 32.455 21.794 32.734 C 21.489 32.899 21.05 33.154 20.818 33.301 C 20.586 33.447 20.147 33.702 19.843 33.867 C 19.264 34.181 17.543 35.177 15.383 36.449 C 14.687 36.859 13.975 37.265 13.8 37.351 C 12.175 38.157 11.072 39.481 10.791 40.965 C 10.577 42.089 10.658 98.585 10.872 98.467 C 10.974 98.411 11.414 98.246 11.849 98.101 C 12.284 97.955 13.245 97.621 13.985 97.357 C 14.725 97.094 15.936 96.663 16.676 96.399 C 17.416 96.136 18.378 95.8 18.813 95.654 C 19.249 95.508 19.699 95.343 19.815 95.287 C 19.932 95.232 20.169 95.144 20.343 95.093 C 20.517 95.041 21.277 94.776 22.031 94.504 C 22.786 94.233 23.57 93.962 23.772 93.903 C 23.976 93.845 24.19 93.759 24.247 93.714 C 24.306 93.669 24.518 93.596 24.719 93.553 C 24.92 93.51 25.158 93.437 25.246 93.391 C 25.336 93.345 25.907 93.132 26.516 92.918 C 27.126 92.703 27.934 92.414 28.313 92.276 C 28.691 92.138 29.04 92.024 29.088 92.024 C 29.136 92.024 29.325 91.958 29.507 91.878 C 29.69 91.798 30.149 91.627 30.526 91.498 C 30.903 91.37 31.307 91.225 31.423 91.177 C 31.539 91.13 32.346 90.845 33.217 90.545 C 34.088 90.245 35.298 89.819 35.908 89.599 C 36.517 89.38 37.324 89.094 37.701 88.966 C 38.079 88.837 38.483 88.694 38.599 88.647 C 38.715 88.601 39.118 88.458 39.496 88.331 C 39.873 88.203 40.276 88.056 40.392 88.003 C 40.509 87.949 40.746 87.863 40.92 87.811 C 41.094 87.759 41.854 87.495 42.608 87.223 C 43.363 86.952 44.146 86.681 44.349 86.622 C 44.553 86.563 44.767 86.478 44.824 86.432 C 44.883 86.387 45.088 86.317 45.28 86.275 C 45.473 86.234 45.758 86.134 45.913 86.053 C 46.069 85.972 46.241 85.905 46.296 85.904 C 46.351 85.904 46.803 85.756 47.299 85.575 C 47.795 85.394 48.51 85.138 48.887 85.007 C 50.248 84.531 51.793 83.982 52 83.899 C 52.116 83.852 52.52 83.71 52.897 83.582 C 53.274 83.455 53.678 83.311 53.794 83.263 C 53.91 83.214 54.563 82.981 55.245 82.745 C 55.927 82.509 57.043 82.123 57.725 81.886 C 58.406 81.65 59.06 81.418 59.176 81.369 C 59.292 81.321 59.696 81.177 60.073 81.049 C 60.45 80.922 60.854 80.78 60.969 80.734 C 61.086 80.687 61.584 80.508 62.077 80.335 C 62.571 80.162 63.38 79.872 63.877 79.691 C 64.373 79.51 64.817 79.362 64.863 79.362 C 64.909 79.362 65.097 79.294 65.28 79.211 C 65.463 79.129 65.969 78.94 66.404 78.794 C 66.839 78.646 67.813 78.306 68.567 78.038 C 69.322 77.77 70.129 77.487 70.361 77.411 C 70.593 77.334 71.4 77.049 72.155 76.777 C 72.91 76.505 73.67 76.235 73.844 76.177 C 74.018 76.12 74.255 76.034 74.371 75.986 C 74.487 75.939 74.891 75.796 75.268 75.668 C 75.645 75.541 76.049 75.397 76.165 75.35 C 76.281 75.302 76.542 75.207 76.745 75.139 C 77.377 74.926 80.53 73.811 81.969 73.292 C 82.723 73.019 83.531 72.734 83.762 72.658 C 83.995 72.582 84.802 72.298 85.557 72.026 C 86.311 71.754 87.118 71.469 87.35 71.392 C 87.583 71.314 88.39 71.032 89.144 70.763 C 89.899 70.496 90.873 70.157 91.308 70.011 C 91.743 69.865 92.194 69.706 92.31 69.657 C 92.511 69.573 93.682 69.154 95.634 68.469 C 96.127 68.296 96.626 68.115 96.742 68.067 C 96.858 68.019 97.666 67.735 98.536 67.435 C 100.345 66.811 101.816 66.293 102.123 66.171 C 102.329 66.089 103.841 65.551 105.237 65.063 C 105.614 64.931 106.421 64.646 107.03 64.43 C 107.64 64.214 108.447 63.929 108.825 63.797 C 109.201 63.665 109.926 63.411 110.435 63.231 C 110.943 63.052 111.75 62.767 112.228 62.599 C 112.707 62.429 113.597 62.114 114.206 61.897 C 114.815 61.68 115.718 61.361 116.211 61.188 C 116.704 61.014 117.203 60.834 117.319 60.786 C 117.435 60.738 118.243 60.454 119.113 60.154 C 120.932 59.527 122.395 59.011 122.701 58.889 C 122.817 58.843 123.22 58.701 123.598 58.573 C 123.975 58.446 124.378 58.304 124.495 58.257 C 124.74 58.159 126.196 57.646 127.186 57.309 C 127.562 57.181 127.966 57.038 128.082 56.991 C 128.199 56.945 128.697 56.765 129.19 56.592 C 129.683 56.418 130.586 56.099 131.195 55.883 C 131.804 55.666 132.612 55.381 132.989 55.249 C 133.366 55.117 134.174 54.832 134.783 54.615 C 135.392 54.399 136.295 54.08 136.788 53.907 C 137.281 53.733 137.78 53.554 137.896 53.507 C 138.012 53.461 138.416 53.319 138.793 53.191 C 139.17 53.064 139.574 52.92 139.69 52.871 C 139.806 52.822 140.257 52.663 140.692 52.516 C 141.128 52.37 142.101 52.03 142.856 51.762 C 143.61 51.493 144.37 51.226 144.544 51.168 C 144.718 51.111 144.967 51.012 145.098 50.949 L 145.335 50.834 L 145.335 45.962 C 145.335 38.727 145.652 39.263 139.215 35.574 C 138.373 35.092 137.092 34.353 136.366 33.933 C 135.641 33.513 134.311 32.742 133.411 32.221 C 132.512 31.7 131.192 30.935 130.479 30.52 C 129.766 30.105 129.164 29.765 129.141 29.765 C 129.117 29.765 128.542 29.433 127.864 29.027 C 127.185 28.62 126.609 28.288 126.583 28.288 C 126.557 28.288 125.981 27.961 125.304 27.562 C 124.627 27.163 123.313 26.397 122.384 25.859 C 121.456 25.322 120.182 24.58 119.553 24.211 C 118.924 23.842 118.387 23.539 118.358 23.539 C 118.329 23.539 117.751 23.213 117.073 22.813 C 115.35 21.798 113.397 20.664 112.834 20.353 C 112.197 20 109.771 18.598 108.402 17.791 C 105.482 16.07 105.157 15.911 104.536 15.911 C 103.383 15.911 103.023 16.421 102.646 18.58 C 102.56 19.073 102.424 19.833 102.343 20.268 C 102.261 20.704 102.12 21.475 102.028 21.983 C 101.787 23.306 101.543 24.639 101.383 25.491 C 101.254 26.186 101.101 27.013 100.744 28.948 C 100.662 29.397 100.526 30.134 100.443 30.583 C 100.087 32.517 99.933 33.345 99.804 34.039 C 99.658 34.818 99.414 36.15 99.175 37.469 C 98.849 39.26 98.794 39.552 98.677 40.107 C 98.61 40.426 98.515 40.732 98.466 40.787 C 98.418 40.843 98.372 36.925 98.365 32.082 C 98.344 17.959 98.261 13.45 98.009 12.934 C 97.4 11.685 95.379 9.821 94.633 9.821 C 94.609 9.821 94.028 9.483 93.344 9.068 C 92.659 8.654 91.838 8.174 91.518 8.001 C 91.199 7.829 90.392 7.367 89.725 6.975 C 89.057 6.584 87.894 5.908 87.14 5.473 C 86.385 5.037 85.066 4.271 84.209 3.769 C 83.352 3.268 82.604 2.857 82.547 2.857 C 82.49 2.857 82.444 2.809 82.444 2.752 C 82.444 2.693 82.39 2.646 82.326 2.646 C 82.261 2.646 81.751 2.371 81.192 2.035 C 79.678 1.124 78.357 0.793 77.168 1.024 Z " fill-rule="evenodd" fill="rgb(255,255,255)"/></g></g></svg>